<svg width="656" height="656" viewBox="0 0 656 656" fill="none" xmlns="http://www.w3.org/2000/svg">
<rect width="656" height="656" fill="white"/>
<path fill-rule="evenodd" clip-rule="evenodd" d="M452.451 82.3325C349.739 65.4821 360.211 234.154 223.545 211.068C83.7584 187.455 41.9789 354.032 83.7584 446.043C128.883 545.421 417.824 598.844 521.194 525.586C637.537 443.134 645.167 113.948 452.451 82.3325Z" fill="url(#paint0_linear_230_516)"/>
<path fill-rule="evenodd" clip-rule="evenodd" d="M224.34 263.413C224.34 263.413 236.133 289.128 246.377 301.049C260.913 317.966 281.669 332.019 289.464 345.212C307.985 376.562 299.77 391.897 299.77 391.897C299.77 391.897 289.985 358.102 275.961 341.596C265.257 328.998 244.233 315.026 237.206 304.68C224.547 286.043 218.007 268.189 218.007 268.189L224.34 263.413Z" fill="white"/>
<path d="M369.945 537.117C321.588 539.376 273.266 542.371 225.001 546.103C218.811 546.714 214.232 546.806 214.476 547.463C210.125 547.187 202.258 544.819 197.686 546.714C201.13 547.513 207.642 550.558 208.028 554.073C162.481 556.7 116.68 554.927 71.4719 548.788C115.736 551.805 160.136 552.84 204.493 551.89C198.777 548.054 191.425 546.748 184.738 548.381C193.358 544.214 203.348 542.943 212.737 544.819C205.573 536.805 200.825 526.658 199.263 516.023C206.419 520.917 212.143 527.88 215.559 535.849C215.232 520.87 225.832 506.316 240.189 502.031C231.02 513.708 226.174 528.701 226.774 543.535C272.609 539.62 318.546 536.881 364.522 535.323C362.253 533.523 360.709 530.833 360.302 527.965C362.549 526.047 365.87 525.482 368.625 526.55C370.648 510.536 381.788 495.993 396.724 489.871C388.405 499.267 382.626 510.89 380.156 523.193C382.722 521.639 385.97 521.262 388.824 522.188C388.01 525.658 385.975 528.828 383.159 531.011C440.087 518 499.846 540.167 557.673 532.036C528.481 541.477 496.94 534.158 466.425 530.983C421.755 526.55 378.853 535.323 369.945 537.117Z" fill="white"/>
<path d="M490.401 190.849C490.901 186.085 495.004 182.513 499.21 180.221C506.819 176.075 515.778 174.458 524.356 175.68C528.241 176.234 531.202 172.533 533.978 169.76C541.181 162.561 552.189 159.933 562.236 161.596C572.283 163.259 581.386 168.809 588.718 175.876C596.05 182.942 601.774 191.493 607.07 200.191C608.182 202.015 610.759 202.064 612.892 201.959C617.496 201.733 622.341 201.86 626.363 204.112C630.384 206.364 633.211 211.363 631.584 215.675C630.821 217.695 629.203 219.305 627.354 220.419C623.666 222.642 619.195 223.025 614.901 223.353C586.269 225.539 557.637 227.725 529.005 229.912C521.171 230.51 513.214 231.101 505.52 229.507C497.826 227.914 490.294 223.813 486.355 217.015C482.417 210.216 483.076 200.532 489.118 195.51C490.394 194.449 490.227 192.5 490.401 190.849" fill="white"/>
<path d="M394.562 234.718C400.812 241.896 433.069 239.382 434.115 252.516C430.419 253.529 426.724 254.543 423.028 255.557C417.02 257.205 410.944 258.88 405.508 261.925C402.957 263.354 399.925 265.12 397.331 263.772C387.299 258.559 375.634 256.939 364.381 258.015C353.127 259.092 342.242 262.758 332.03 267.607C326.698 270.138 320.69 273.061 315.172 270.968C295.024 263.329 272.039 263.463 251.982 271.336C248.426 272.731 244.461 271.182 240.962 269.651C237.177 267.995 233.391 266.339 229.606 264.682C234.488 259.099 255.358 251.331 259.613 245.927C260.36 244.978 288.227 225.653 318.786 234.384C320.155 233.742 367.681 225.653 394.562 234.718Z" fill="white"/>
<path fill-rule="evenodd" clip-rule="evenodd" d="M269.656 325.978C251.937 309.137 231.48 292.089 226.708 268.113C235.466 290.605 254.914 306.797 271.97 323.876C289.026 340.955 305.182 362.258 304.128 386.372C332.016 380.284 360.916 378.857 389.268 382.168C392.174 369.08 400.634 358.06 407.272 346.411C423.728 317.534 429.292 283.916 434.579 251.102C435.916 242.806 425.759 237.888 417.616 235.813C409.483 233.741 401.35 231.669 393.217 229.596C377.932 225.702 362.097 221.78 346.55 224.443C336.037 226.243 325.656 231.034 315.142 229.24C298.406 226.385 280.65 230.001 266.363 239.172C259.18 243.783 252.797 249.76 244.957 253.133C228.456 260.233 213.922 271.842 203.351 286.366C197.829 257.798 207.134 228.563 218.012 201.576C230.173 171.409 245.438 140.886 271.603 121.563C309.964 93.2329 359.978 98.7471 399.883 124.858C439.788 150.969 464.171 194.026 472.051 241.059C472.967 246.529 473.617 252.45 471.041 257.362C468.466 262.275 467.494 265.117 463.295 261.493C459.716 258.404 455.906 255.199 451.262 254.31C446.618 253.421 440.984 255.834 440.083 260.476C433.489 294.472 426.565 329.33 408.244 358.716C403.473 366.368 397.917 373.675 394.883 382.167C392.562 388.665 391.813 395.603 391.082 402.464C389.557 416.761 388.033 431.058 386.509 445.355C385.866 451.382 384.97 457.944 380.58 462.123C376.388 466.113 370.149 466.83 364.385 467.342C345.664 469.005 326.943 470.667 308.222 472.33C304.874 472.628 301.078 472.78 298.632 470.473C296.748 468.696 296.226 465.945 295.856 463.382C293.226 445.193 293.227 426.625 295.858 408.436C299.633 382.339 287.955 355.639 269.559 336.747C259.973 326.902 248.668 318.853 239.097 308.993C229.527 299.132 221.516 286.739 220.942 273.009C227.454 291.054 239.455 307.077 254.94 318.401C278.081 335.324 294.569 361.107 300.222 389.213C304.667 365.174 287.375 342.82 269.656 325.978Z" fill="white"/>
<path fill-rule="evenodd" clip-rule="evenodd" d="M221.772 380.906C218.964 379.367 217.929 375.914 217.191 372.798C213.569 357.51 210.921 341.99 209.268 326.366C209.163 325.373 209.115 324.225 209.838 323.536C211.386 325.362 211.66 327.912 211.897 330.295C213.606 347.423 216.916 364.392 221.772 380.906Z" fill="#00160A"/>
<path fill-rule="evenodd" clip-rule="evenodd" d="M444.452 328.827C446.997 320.317 448.873 311.607 450.058 302.804C450.218 301.612 450.667 300.112 451.866 300.02C452.566 300.632 452.498 301.721 452.366 302.641C451.238 310.491 449.628 318.271 447.548 325.923C447.126 327.476 445.945 329.426 444.452 328.827H444.452Z" fill="#00160A"/>
<path fill-rule="evenodd" clip-rule="evenodd" d="M379.596 533.406C380.985 529.636 383.528 526.301 386.795 523.963C383.323 524.175 379.946 525.687 377.475 528.136C378.837 517.462 382.251 507.054 387.475 497.648C377.81 505.581 371.572 517.556 370.609 530.023C368.306 528.681 365.434 528.357 362.89 529.152C365.242 531.807 367.593 534.462 369.945 537.117C321.588 539.376 273.266 542.371 225.001 546.103C222.491 532.765 225.754 518.441 233.793 507.506C223.185 514.987 216.636 527.901 216.869 540.88C212.139 534.571 209.783 525.558 202.68 521.953C203.937 528.136 205.388 529.526 213.732 545.497C214.073 546.15 214.232 546.806 214.476 547.463C210.125 547.187 202.258 544.819 197.686 546.714C201.13 547.513 207.642 550.558 208.028 554.073C162.481 556.7 116.68 554.927 71.4719 548.788C115.736 551.805 160.136 552.84 204.493 551.89C198.777 548.054 191.425 546.748 184.738 548.381C193.358 544.214 203.348 542.943 212.737 544.819C205.573 536.805 200.825 526.658 199.263 516.023C206.419 520.917 212.143 527.88 215.559 535.849C215.232 520.87 225.832 506.316 240.189 502.031C231.02 513.708 226.174 528.701 226.774 543.535C272.609 539.62 318.546 536.881 364.522 535.323C362.253 533.523 360.709 530.833 360.302 527.965C362.549 526.047 365.87 525.482 368.625 526.55C370.648 510.536 381.788 495.993 396.724 489.871C388.405 499.267 382.626 510.89 380.156 523.193C382.722 521.639 385.97 521.262 388.824 522.188C388.01 525.658 385.975 528.828 383.159 531.011C440.087 518 499.846 540.167 557.673 532.036C528.481 541.477 496.94 534.158 466.425 530.983C437.543 527.978 408.266 528.795 379.596 533.406Z" fill="#00160A"/>
<path fill-rule="evenodd" clip-rule="evenodd" d="M405.23 325.257C405.928 326.283 405.709 327.656 405.427 328.864C403.737 336.123 400.758 343.079 396.67 349.311C395.533 347.893 396.578 345.84 397.535 344.295C400.083 340.184 401.954 335.656 403.052 330.946C403.519 328.947 403.894 326.815 405.23 325.257H405.23Z" fill="#00160A"/>
<path fill-rule="evenodd" clip-rule="evenodd" d="M394.333 338.435C393.281 337.528 393.752 335.839 394.256 334.545C395.874 330.387 396.962 326.023 397.485 321.592C397.658 320.123 397.934 318.394 399.259 317.736C399.883 318.299 399.789 319.287 399.644 320.115C398.546 326.409 397.404 332.833 394.333 338.435Z" fill="#00160A"/>
<path fill-rule="evenodd" clip-rule="evenodd" d="M306.81 361.895C307.118 361.619 307.598 361.902 307.883 362.201C309.164 363.543 309.928 365.366 309.984 367.22C308.271 366.301 307.015 364.573 306.671 362.66C306.623 362.393 306.608 362.076 306.81 361.895L306.81 361.895Z" fill="#00160A"/>
<path fill-rule="evenodd" clip-rule="evenodd" d="M441.658 305.686C441.201 313.768 439.356 321.77 436.227 329.235C436.146 329.428 436.059 329.628 435.9 329.765C435.436 330.165 434.652 329.734 434.486 329.144C434.319 328.553 434.556 327.933 434.781 327.362C436.989 321.775 438.454 315.895 439.124 309.925C439.324 308.15 439.884 305.894 441.658 305.686L441.658 305.686Z" fill="#00160A"/>
<path fill-rule="evenodd" clip-rule="evenodd" d="M303.824 347.957C300.817 343.892 298.399 339.391 296.668 334.64C296.445 334.03 296.581 332.999 297.209 333.168C297.445 333.232 297.585 333.468 297.701 333.684C300.312 338.552 302.923 343.421 305.535 348.289C305.402 349.021 304.267 348.555 303.824 347.957H303.824Z" fill="#00160A"/>
<path fill-rule="evenodd" clip-rule="evenodd" d="M218.205 263.471C216.823 262.755 216.768 260.829 216.934 259.282C220.024 230.443 234.065 202.912 255.593 183.476C256.088 187.135 253.263 190.303 250.759 193.016C232.922 212.339 221.359 237.364 218.205 263.471Z" fill="#00160A"/>
<path fill-rule="evenodd" clip-rule="evenodd" d="M399.18 263.443C399.574 253.974 397.991 243.553 394.562 234.718C400.812 241.896 401.071 252.341 401.005 261.859C410.974 255.93 422.516 252.673 434.115 252.516C430.419 253.529 426.724 254.543 423.028 255.557C417.02 257.205 410.944 258.88 405.508 261.925C402.957 263.354 399.925 265.121 397.331 263.772C387.299 258.559 375.634 256.939 364.381 258.016C353.127 259.092 342.242 263.633 332.03 268.481C326.698 271.012 320.69 273.935 315.172 271.843C295.024 264.204 272.039 263.463 251.982 271.336C248.426 272.732 244.461 271.183 240.962 269.651C237.177 267.995 233.391 266.339 229.606 264.682C234.007 265.606 244.933 269.537 244.933 269.537C244.933 269.537 248.081 269.917 249.072 268.708C250.062 267.499 250.375 265.892 250.732 264.371C252.303 257.675 255.358 251.331 259.613 245.927C260.36 244.978 261.961 244.091 262.557 245.143C256.668 251.968 252.742 260.466 251.362 269.374C272.824 261.28 297.314 261.535 318.601 270.076C320.635 258.298 320.698 246.182 318.786 234.384C320.155 233.742 321.16 235.782 321.295 237.288C322.276 248.261 322.1 259.337 320.77 270.272C333.081 264.325 345.849 258.951 359.349 256.783C372.849 254.614 387.259 256.749 399.18 263.443Z" fill="#00160A"/>
<path fill-rule="evenodd" clip-rule="evenodd" d="M242.701 239.932C249.137 221.513 259.17 204.358 272.067 189.718C273.013 188.644 274.137 187.504 275.567 187.456C276.997 187.407 278.339 189.276 277.33 190.29C262.491 205.209 250.917 223.358 243.65 243.105C242.342 243.139 242.269 241.167 242.701 239.932H242.701Z" fill="#00160A"/>
<path fill-rule="evenodd" clip-rule="evenodd" d="M222.367 322.873C222.555 323.103 222.577 323.422 222.592 323.718C223.21 335.985 226.327 347.971 229.428 359.856C229.561 360.364 228.82 360.73 228.355 360.488C227.89 360.245 227.687 359.7 227.525 359.201C223.907 348.067 221.599 336.508 220.661 324.838C220.614 324.257 220.581 323.629 220.891 323.134C221.201 322.64 221.997 322.422 222.367 322.873H222.367Z" fill="#00160A"/>
<path fill-rule="evenodd" clip-rule="evenodd" d="M319.272 223.261C317.98 223.315 317.559 221.56 317.578 220.267C317.773 206.757 317.969 193.246 318.165 179.736C318.186 178.244 318.59 176.301 320.073 176.137C321.391 177.681 321.363 179.926 321.265 181.954C320.601 195.723 319.936 209.492 319.272 223.261Z" fill="#00160A"/>
<path fill-rule="evenodd" clip-rule="evenodd" d="M443.671 243.938C446.534 239.29 446.341 233.441 445.858 228.004C445.013 218.48 443.564 209.009 441.521 199.668C441.326 198.772 441.208 197.644 441.962 197.123C442.585 196.692 443.496 196.99 443.984 197.569C444.472 198.148 444.643 198.923 444.793 199.666C447.136 211.278 448.203 223.148 447.969 234.992C447.881 239.397 447.16 244.564 443.294 246.675C442.551 245.998 443.144 244.794 443.671 243.938H443.671Z" fill="#00160A"/>
<path fill-rule="evenodd" clip-rule="evenodd" d="M398.326 212.637C399.298 216.956 398.886 221.575 397.164 225.653C395.982 224.383 396.314 222.391 396.519 220.668C397.314 213.976 394.971 207.311 392.089 201.218C389.207 195.126 385.725 189.243 383.993 182.73C383.732 181.75 383.772 180.331 384.771 180.158C385.615 180.011 386.19 180.966 386.505 181.763C389.743 189.967 392.982 198.171 396.22 206.375C397.029 208.426 397.842 210.486 398.326 212.637Z" fill="#00160A"/>
<path fill-rule="evenodd" clip-rule="evenodd" d="M486.027 188.225C486.528 183.461 490.63 179.889 494.837 177.597C502.446 173.451 511.405 171.834 519.983 173.056C523.867 173.61 526.829 169.909 529.604 167.136C536.807 159.937 547.816 157.309 557.863 158.972C567.909 160.635 577.013 166.185 584.345 173.252C591.677 180.318 597.4 188.869 602.697 197.567C603.808 199.391 606.385 199.44 608.519 199.335C613.123 199.109 617.967 199.236 621.989 201.488C626.011 203.74 628.838 208.739 627.21 213.051C626.448 215.071 624.829 216.681 622.981 217.795C619.293 220.018 614.821 220.401 610.528 220.729C581.896 222.915 553.264 225.101 524.632 227.288C516.797 227.886 508.84 228.477 501.147 226.883C493.453 225.29 485.921 221.189 481.982 214.391C478.043 207.592 478.702 197.908 484.744 192.886C486.021 191.825 485.854 189.876 486.027 188.225M496.874 179.075C493.446 180.709 490.025 183.114 488.896 186.739C488.494 188.03 488.411 189.402 488.038 190.702C487.069 194.073 484.28 196.605 482.808 199.789C479.74 206.426 483.237 214.681 489.086 219.069C494.936 223.458 502.511 224.762 509.806 225.276C536.06 227.124 562.165 220.463 588.475 219.801C598.81 219.541 609.474 220.156 619.141 216.495C622.8 215.109 626.821 211.603 625.251 208.019C624.854 207.114 624.139 206.388 623.39 205.743C618.761 201.763 612.133 200.24 606.231 201.801C603.222 202.598 600.708 199.545 599.06 196.903C591.89 185.412 583.771 173.957 572.188 166.937C560.604 159.916 544.721 158.381 533.946 166.589C529.103 170.277 524.599 176.008 518.547 175.366C511.165 174.583 503.575 175.882 496.874 179.075Z" fill="#00160A"/>
<path fill-rule="evenodd" clip-rule="evenodd" d="M95.9104 145.404C94.9444 148.42 96.1622 151.665 97.4825 154.544C99.017 157.889 101.539 161.662 105.212 161.43C116.554 160.714 127.897 159.998 139.239 159.281C140.882 159.178 143.143 159.606 143.153 161.253C128.93 162.391 114.706 163.529 100.483 164.668C90.9158 165.434 80.9117 166.341 72.8334 171.524C64.755 176.707 59.4893 187.634 63.8469 196.186C65.4979 199.426 68.7384 202.135 72.3734 202.027C82.1701 201.735 91.9668 201.443 101.764 201.152C104.046 201.084 107.17 201.804 107.068 204.085C91.4987 203.155 75.8379 203.771 60.3902 205.921C54.8442 206.692 49.1392 207.733 44.4883 210.851C39.8374 213.97 36.4956 219.695 37.7979 225.141C38.6967 228.899 41.6411 231.918 45.046 233.747C48.4509 235.575 52.3051 236.367 56.1165 237.007C96.5355 243.794 138 235.856 178.878 238.821C183.451 239.153 188.403 239.795 191.661 243.022C156.394 236.253 120.025 243.807 84.155 242.11C76.1709 241.732 68.2164 240.896 60.2673 240.059C53.7609 239.375 46.944 238.578 41.5765 234.838C38.994 233.038 36.8291 230.552 35.7488 227.595C33.0725 220.27 37.7954 211.903 44.4505 207.838C51.1056 203.773 59.1813 202.968 66.9474 202.262C60.6002 197.919 58.713 188.77 61.4591 181.586C64.2053 174.402 70.737 169.164 77.8958 166.353C85.0546 163.541 92.8543 162.862 100.537 162.5C98.2712 159.533 95.9718 156.504 94.7054 152.992C93.439 149.48 93.3457 145.343 95.3664 142.204C96.7716 140.021 99.0253 138.543 101.274 137.245C122.787 124.833 148.791 123.391 173.62 124.007C180.367 124.174 187.334 124.524 193.401 127.479C202.814 132.063 208.536 142.662 208.593 153.131C208.65 163.601 203.584 173.703 196.138 181.063C194.943 179.406 196.437 177.204 197.747 175.636C203.813 168.375 207.259 158.694 205.969 149.321C204.678 139.949 198.248 131.182 189.283 128.157C185.537 126.893 181.538 126.626 177.589 126.425C151.915 125.116 125.007 126.46 102.522 138.921C99.7535 140.454 96.8759 142.39 95.9104 145.404Z" fill="#00160A"/>
<path fill-rule="evenodd" clip-rule="evenodd" d="M269.656 325.978C251.937 309.137 231.48 292.089 226.708 268.113C235.466 290.605 254.914 306.797 271.97 323.876C289.026 340.955 305.182 362.258 304.128 386.372C332.016 380.284 360.916 378.857 389.268 382.168C392.174 369.08 400.634 358.06 407.272 346.411C423.728 317.534 429.292 283.916 434.579 251.102C435.916 242.806 425.759 237.888 417.616 235.813C409.483 233.741 401.35 231.669 393.217 229.596C377.932 225.702 362.097 221.78 346.55 224.443C336.037 226.243 325.656 231.034 315.142 229.24C298.406 226.385 280.65 230.001 266.363 239.172C259.18 243.783 252.864 250.049 244.957 253.133C227.839 259.812 218.007 267.901 203.351 286.366C197.829 257.798 207.134 228.563 218.012 201.576C230.173 171.409 245.438 140.886 271.603 121.563C309.964 93.2329 366.101 96.1231 406.006 122.234C445.91 148.345 470.294 194.026 478.173 241.058C479.09 246.529 479.74 252.45 477.164 257.362C474.589 262.275 467.494 265.117 463.295 261.493C459.716 258.404 455.906 255.199 451.262 254.31C446.618 253.421 440.984 255.834 440.083 260.476C433.489 294.472 426.565 329.33 408.244 358.716C403.473 366.368 397.917 373.675 394.883 382.167C392.562 388.665 391.813 395.602 391.082 402.464C389.557 416.761 388.033 431.058 386.509 445.355C385.866 451.382 384.97 457.944 380.58 462.123C376.388 466.113 370.149 466.83 364.385 467.342C345.664 469.005 326.943 470.667 308.222 472.33C304.874 472.628 301.078 472.78 298.632 470.473C296.748 468.696 296.226 465.945 295.856 463.382C293.226 445.193 293.227 426.625 295.858 408.436C299.633 382.339 287.955 355.639 269.559 336.747C259.973 326.902 248.668 318.853 239.097 308.993C229.527 299.132 221.516 286.739 220.942 273.009C227.454 291.054 239.455 307.077 254.94 318.401C278.081 335.324 294.569 361.107 300.222 389.213C304.667 365.174 287.375 342.82 269.656 325.978ZM309.399 225.923C316.928 226.659 324.813 228.53 331.84 225.728C350.762 218.181 372.711 218.58 391.346 226.81C399.3 230.322 408.252 230.516 416.817 232.015C425.381 233.514 434.422 236.931 438.782 244.453C443.679 252.899 458.069 250.564 463.645 258.579C465.958 261.903 471.646 260.636 473.836 257.23C476.025 253.824 475.73 249.44 475.241 245.421C471.257 212.705 459.275 180.629 438.599 154.964C417.923 129.3 388.262 110.427 355.721 105.209C323.179 99.9915 288.066 109.215 263.981 131.711C249.404 145.328 239.293 162.992 230.408 180.852C214.935 211.958 202.268 245.918 204.768 280.57C215.153 268.003 226.435 254.818 242.011 250.006C245.73 248.857 249.806 248.119 252.629 245.438C267.593 231.228 288.861 223.917 309.399 225.923ZM326.043 440.327C325.985 448.681 327.237 457.043 329.738 465.014C329.951 465.695 330.215 466.428 330.821 466.805C331.409 467.172 332.158 467.102 332.847 467.02C341.218 466.018 349.59 465.017 357.961 464.016C358.268 463.979 358.611 463.923 358.795 463.674C358.985 463.416 358.927 463.058 358.86 462.744C357.353 455.662 355.846 448.581 354.339 441.499C354.255 441.1 354.159 440.68 353.877 440.385C353.532 440.023 352.995 439.938 352.499 439.875C344.275 438.834 335.969 438.447 327.684 438.717C327.199 438.733 326.657 438.778 326.338 439.144C326.066 439.457 326.046 439.911 326.043 440.327ZM352.611 410.808C352.336 410.432 351.814 410.357 351.349 410.316C342.909 409.569 334.392 409.691 325.977 410.68C325.489 410.737 324.973 410.81 324.595 411.124C323.977 411.638 323.973 412.568 324.02 413.371C324.301 418.138 324.582 422.906 324.863 427.673C324.931 428.837 325.384 430.373 326.549 430.315C334.802 429.9 343.091 430.203 351.293 431.218C352.421 431.357 352.856 429.8 352.854 428.663C352.845 423.045 352.835 417.428 352.826 411.81C352.825 411.462 352.816 411.089 352.611 410.808ZM300.289 443.197C299.653 443.485 299.001 443.81 298.569 444.36C297.882 445.236 297.911 446.457 297.973 447.569C298.189 451.471 298.405 455.373 298.621 459.275C298.73 461.249 298.846 463.256 299.516 465.117C300.185 466.977 301.499 468.705 303.353 469.393C304.88 469.961 306.571 469.77 308.188 469.571C311.248 469.195 314.309 468.82 317.369 468.444C318.626 468.289 319.927 468.12 321.003 467.452C318.134 458.74 316.228 449.712 315.33 440.584C315.267 439.945 314.408 439.794 313.767 439.835C309.12 440.128 304.529 441.273 300.289 443.197ZM382.634 432.749C383.54 427.148 384.447 421.548 385.353 415.948C385.432 415.457 385.499 414.908 385.211 414.503C384.918 414.093 384.367 413.98 383.869 413.9C377.234 412.835 370.583 411.873 363.918 411.015C363.418 410.951 362.811 410.931 362.522 411.345C362.35 411.592 362.356 411.917 362.368 412.217C362.609 418.056 362.85 423.894 363.091 429.733C363.113 430.266 363.163 430.862 363.563 431.216C363.844 431.466 364.237 431.536 364.609 431.596C370.204 432.5 375.799 433.403 381.394 434.307C382.127 434.425 382.516 433.481 382.634 432.749ZM324.472 399.711C324.352 400.356 324.311 401.182 324.885 401.499C325.161 401.651 325.496 401.625 325.809 401.595C334.583 400.752 343.356 399.91 352.129 399.067C352.582 399.024 353.06 398.971 353.424 398.699C353.921 398.33 354.074 397.665 354.191 397.057C354.906 393.356 355.621 389.656 356.336 385.956C356.438 385.43 356.5 384.788 356.082 384.453C355.79 384.219 355.377 384.239 355.004 384.27C346.593 384.974 338.183 385.678 329.772 386.382C329.086 386.439 328.368 386.507 327.787 386.877C326.804 387.504 326.507 388.78 326.293 389.927C325.686 393.189 325.079 396.45 324.472 399.711ZM364 387.541C363.671 390.749 363.343 393.957 363.014 397.165C362.96 397.693 362.913 398.259 363.17 398.724C363.551 399.41 364.427 399.61 365.2 399.74C372.24 400.926 379.28 402.112 386.32 403.297C386.612 403.347 386.923 403.394 387.195 403.277C387.713 403.054 387.829 402.383 387.867 401.82C388.147 397.68 388.209 393.525 388.055 389.379C388.028 388.665 387.991 387.931 387.7 387.278C386.817 385.296 384.192 384.967 382.022 384.923C376.941 384.82 371.859 384.716 366.777 384.613C366.25 384.602 365.698 384.597 365.231 384.842C364.316 385.321 364.105 386.513 364 387.541ZM438.944 251.086C435.311 255.822 434.315 262.004 433.392 267.901C428.725 297.729 422.674 328.249 406.26 353.589C400.638 362.27 393.63 370.841 392.835 381.153C395.931 370.418 404.506 362.293 410.392 352.796C414.71 345.828 417.592 338.078 420.232 330.317C426.603 311.583 431.733 292.426 435.575 273.015C436.956 266.036 438.319 258.695 442.813 253.18C441.287 253.164 439.791 252.355 438.944 251.086ZM312.995 431.427C313.484 431.3 314.006 431.152 314.323 430.759C314.663 430.339 314.678 429.751 314.678 429.211C314.671 424.063 314.665 418.915 314.659 413.768C314.658 413.397 314.647 412.995 314.412 412.708C314.075 412.296 313.452 412.311 312.922 412.369C308.838 412.816 304.793 413.62 300.848 414.769C300.385 414.904 299.9 415.057 299.571 415.41C299.194 415.815 299.097 416.4 299.021 416.948C298.254 422.506 297.948 428.128 298.107 433.736C298.119 434.193 298.186 434.736 298.592 434.946C298.873 435.091 299.213 435.015 299.519 434.935C304.011 433.766 308.503 432.596 312.995 431.427ZM378.786 459.158C381.761 455.582 381.787 450.479 381.664 445.829C381.64 444.924 380.576 444.475 379.696 444.258C374.995 443.099 370.22 442.243 365.41 441.697C364.989 441.649 364.527 441.613 364.176 441.85C363.64 442.213 363.645 442.99 363.715 443.633C364.367 449.637 365.613 455.576 367.431 461.335C367.642 462.004 367.919 462.74 368.553 463.04C368.894 463.202 369.287 463.208 369.664 463.197C373.09 463.098 376.594 461.793 378.786 459.158ZM306.908 389.915C305.74 390.252 304.547 390.646 303.627 391.441C302.754 392.196 302.198 393.251 301.766 394.322C300.393 397.721 300.08 401.44 299.783 405.095C299.761 405.374 299.746 405.682 299.916 405.904C300.172 406.237 300.678 406.193 301.091 406.116C304.651 405.448 308.212 404.781 311.772 404.113C312.786 403.923 313.908 403.664 314.484 402.808C314.875 402.226 314.924 401.487 314.96 400.786C315.178 396.58 315.396 392.373 315.614 388.167C312.671 388.511 309.756 389.096 306.908 389.915ZM326.897 407.928C334.672 407.086 342.527 406.983 350.322 407.619C351.206 407.692 352.178 407.751 352.894 407.227C354.015 406.407 353.864 404.718 353.596 403.355C353.526 402.999 353.446 402.622 353.196 402.359C352.799 401.938 352.137 401.956 351.561 402.004C343.779 402.657 335.997 403.31 328.216 403.962C327.142 404.052 325.996 404.17 325.163 404.853C324.329 405.535 324.059 406.999 324.918 407.649C325.463 408.062 326.217 408.002 326.897 407.928ZM386.141 407.31C385.206 406.354 383.798 406.073 382.482 405.839C376.658 404.805 370.835 403.77 365.011 402.735C364.252 402.6 363.318 402.53 362.861 403.151C362.662 403.423 362.606 403.77 362.556 404.103C362.309 405.76 362.513 408.067 364.174 408.285C370.793 409.158 377.413 410.03 384.033 410.902C384.689 410.989 385.394 411.067 385.98 410.759C387.164 410.138 387.076 408.265 386.141 407.31ZM319.054 440.164C318.659 441.247 318.857 442.445 319.062 443.58C320.316 450.518 321.68 457.438 323.24 464.313C323.451 465.24 323.683 466.204 324.299 466.928C324.915 467.651 326.038 468.037 326.84 467.529C328.046 466.766 327.601 464.938 327.083 463.608C324.404 456.739 323.643 449.283 323.273 441.92C323.208 440.627 322.959 439.05 321.744 438.603C320.662 438.205 319.448 439.08 319.054 440.164ZM381.092 441.443C382.502 440.905 381.527 438.5 382.535 437.377C376.681 435.917 370.713 434.916 364.703 434.385C363.285 434.26 362.628 436.396 363.472 437.542C364.316 438.688 365.859 439.014 367.261 439.256C368.525 439.475 369.789 439.693 371.053 439.912C374.02 440.425 376.987 440.938 379.955 441.451C380.333 441.517 380.733 441.58 381.092 441.443ZM328.276 436.181C335.541 435.755 342.847 436.028 350.06 436.996C351.501 437.189 353.5 437.019 353.693 435.578C353.893 434.088 351.883 433.433 350.381 433.358C343.081 432.995 335.766 432.944 328.462 433.205C327.169 433.252 325.395 433.908 325.736 435.156C325.998 436.113 327.285 436.239 328.276 436.181ZM356.169 411.689C355.829 412.4 355.819 413.219 355.816 414.008C355.801 418.458 355.785 422.907 355.769 427.357C355.765 428.344 355.769 429.368 356.184 430.263C356.599 431.159 357.549 431.888 358.521 431.716C360.133 431.431 360.431 429.272 360.342 427.637C360.084 422.903 359.825 418.169 359.567 413.435C359.503 412.27 359.199 410.807 358.057 410.569C357.285 410.408 356.51 410.977 356.169 411.689ZM361.134 442.477C360.811 441.546 360.065 440.687 359.089 440.553C358.112 440.418 357.035 441.295 357.223 442.262C358.367 448.155 359.511 454.047 360.655 459.939C360.923 461.319 361.293 462.854 362.483 463.602C363.674 464.35 365.743 463.347 365.298 462.014C363.491 456.605 361.67 451.101 361.478 445.401C361.445 444.416 361.457 443.408 361.134 442.477ZM321.312 429.907C321.843 428.957 321.801 427.804 321.744 426.718C321.547 422.928 321.349 419.138 321.152 415.347C321.09 414.17 320.988 412.89 320.191 412.021C319.395 411.151 317.649 411.144 317.266 412.259C317.164 412.555 317.174 412.877 317.185 413.19C317.366 418.261 317.547 423.332 317.727 428.403C317.759 429.282 317.854 430.288 318.567 430.804C319.449 431.441 320.781 430.856 321.312 429.907ZM318.586 388.428C317.578 389.82 317.533 391.664 317.527 393.382C317.518 395.75 317.509 398.117 317.501 400.484C317.496 401.753 317.961 403.486 319.224 403.363C320.212 403.267 320.606 402.059 320.771 401.08C321.509 396.685 322.248 392.29 322.986 387.895C321.95 386.524 319.593 387.036 318.586 388.428ZM311.656 437.806C312.696 437.714 313.855 437.624 314.557 436.852C315.259 436.08 314.82 434.433 313.786 434.575C310.594 435.012 307.401 435.449 304.209 435.887C302.554 436.114 300.796 436.385 299.535 437.481C298.273 438.577 297.856 440.805 299.147 441.866C302.942 439.598 307.252 438.199 311.656 437.806ZM300.019 409.222C299.065 410.131 298.893 411.958 300.022 412.639C303.677 411.419 307.462 410.59 311.292 410.172C312.236 410.069 313.237 409.97 313.993 409.396C314.749 408.822 315.083 407.583 314.399 406.924C313.859 406.405 313.001 406.482 312.26 406.593C309.396 407.022 306.531 407.451 303.667 407.881C302.364 408.076 300.972 408.313 300.019 409.222ZM359.728 384.761C359.391 385.121 359.289 385.635 359.201 386.119C358.528 389.819 357.856 393.519 357.183 397.219C357.061 397.888 356.986 398.696 357.508 399.132C358.041 399.577 358.91 399.303 359.33 398.751C359.751 398.198 359.843 397.471 359.92 396.781C360.337 393.072 360.754 389.363 361.171 385.654C361.209 385.321 361.236 384.949 361.028 384.686C360.723 384.299 360.066 384.402 359.728 384.761ZM358.471 433.764C357.071 433.593 355.714 435.381 356.587 436.489C357.197 437.263 357.914 438.054 358.877 438.265C359.841 438.476 361.038 437.774 360.946 436.792C360.814 435.388 359.87 433.935 358.471 433.764ZM359.025 405.361C359.496 404.228 359.609 402.414 358.39 402.272C357.914 402.217 357.462 402.51 357.135 402.861C355.616 404.492 356.401 407.607 358.512 408.324C359.189 407.543 359.427 406.405 359.121 405.418C358.785 404.338 358.59 406.405 359.025 405.361ZM321.235 407.437C320.951 406.393 320.084 405.411 319.002 405.4C317.599 405.386 316.681 407.378 317.603 408.435C318.524 409.493 320.623 408.856 320.801 407.464C320.958 406.231 321.562 408.636 321.235 407.437ZM322.091 436.141C322.424 435.858 322.663 435.466 322.762 435.04C321.839 434.008 320.221 433.674 318.964 434.256C318.685 434.385 318.416 434.562 318.258 434.825C317.805 435.577 318.556 436.588 319.422 436.732C320.288 436.875 321.137 436.453 321.913 436.043L322.091 436.141Z" fill="#00160A"/>
<defs>
<linearGradient id="paint0_linear_230_516" x1="336.087" y1="81.1466" x2="336.087" y2="559.644" gradientUnits="userSpaceOnUse">
<stop stop-color="#191970"/>
<stop offset="1" stop-color="#7DF9FF" stop-opacity="0.75"/>
</linearGradient>
</defs>
</svg>
