<svg width="48" height="48" viewBox="0 0 48 48" fill="none" xmlns="http://www.w3.org/2000/svg">
<g clip-path="url(#clip0_38_1818)">
<path d="M48.0001 24C48.0001 10.7453 37.2548 0 24.0001 0C10.7454 0 0.00012207 10.7453 0.00012207 24C0.00012207 35.255 7.74924 44.6995 18.2027 47.2934V31.3344H13.2539V24H18.2027V20.8397C18.2027 12.671 21.8996 8.8848 29.9195 8.8848C31.4401 8.8848 34.0638 9.18336 35.1371 9.48096V16.129C34.5707 16.0694 33.5867 16.0397 32.3646 16.0397C28.4296 16.0397 26.9089 17.5306 26.9089 21.4061V24H34.7483L33.4014 31.3344H26.9089V47.8243C38.7928 46.3891 48.0011 36.2707 48.0011 24H48.0001Z" fill="#0866FF"/>
<path d="M33.4005 31.3344L34.7473 24H26.908V21.406C26.908 17.5305 28.4286 16.0396 32.3636 16.0396C33.5857 16.0396 34.5697 16.0694 35.1361 16.1289V9.48093C34.0628 9.18237 31.4392 8.88477 29.9185 8.88477C21.8987 8.88477 18.2017 12.671 18.2017 20.8396V24H13.2529V31.3344H18.2017V47.2934C20.0584 47.7542 22.0005 48 23.9992 48C24.9832 48 25.9537 47.9395 26.907 47.8243V31.3344H33.3995H33.4005Z" fill="white"/>
</g>
<defs>
<clipPath id="clip0_38_1818">
<rect width="48" height="48" fill="white"/>
</clipPath>
</defs>
</svg>
