<svg width="48" height="48" viewBox="0 0 48 48" fill="none" xmlns="http://www.w3.org/2000/svg">
<g clip-path="url(#clip0_38_1821)">
<path fill-rule="evenodd" clip-rule="evenodd" d="M24.02 0C10.7376 0 0.00012207 10.8167 0.00012207 24.1983C0.00012207 34.895 6.88001 43.9495 16.4242 47.1542C17.6175 47.3951 18.0546 46.6335 18.0546 45.9929C18.0546 45.4319 18.0153 43.509 18.0153 41.5055C11.3335 42.948 9.9421 38.6209 9.9421 38.6209C8.86831 35.8164 7.27727 35.0956 7.27727 35.0956C5.09034 33.6132 7.43657 33.6132 7.43657 33.6132C9.86245 33.7735 11.1354 36.0971 11.1354 36.0971C13.2825 39.7827 16.7423 38.7413 18.1342 38.1002C18.3329 36.5377 18.9696 35.456 19.6456 34.8552C14.3165 34.2942 8.7095 32.211 8.7095 22.9161C8.7095 20.2719 9.66333 18.1086 11.1747 16.4261C10.9363 15.8253 10.1009 13.3409 11.4137 10.0157C11.4137 10.0157 13.4418 9.3746 18.0148 12.4996C19.9726 11.9699 21.9917 11.7005 24.02 11.6982C26.0481 11.6982 28.1156 11.979 30.0247 12.4996C34.5982 9.3746 36.6263 10.0157 36.6263 10.0157C37.9391 13.3409 37.1032 15.8253 36.8648 16.4261C38.416 18.1086 39.3305 20.2719 39.3305 22.9161C39.3305 32.211 33.7235 34.2539 28.3545 34.8552C29.2297 35.6163 29.9849 37.0583 29.9849 39.3421C29.9849 42.5871 29.9455 45.1915 29.9455 45.9924C29.9455 46.6335 30.3831 47.3951 31.5759 47.1547C41.1201 43.9491 48 34.895 48 24.1983C48.0393 10.8167 37.2625 0 24.02 0Z" fill="#24292F"/>
</g>
<defs>
<clipPath id="clip0_38_1821">
<rect width="48" height="48" fill="white"/>
</clipPath>
</defs>
</svg>
