<svg width="119" height="97" viewBox="0 0 119 97" fill="none" xmlns="http://www.w3.org/2000/svg">
<path d="M38.6473 63.9437L39.5407 66.6886H42.432L40.093 68.385L40.9864 71.1297L38.6473 69.4335L36.3082 71.1297L37.2018 68.385L34.8627 66.6886H37.7539L38.6473 63.9437Z" fill="white"/>
<path d="M48.9616 63.9439L49.8732 66.6886H52.8234L50.4367 68.385L51.3483 71.1299L48.9616 69.4335L46.5748 71.1299L47.4864 68.385L45.0997 66.6886H48.05L48.9616 63.9439Z" fill="white"/>
<path d="M59.1943 63.9439L60.106 66.6886H63.0561L60.6694 68.385L61.5812 71.1299L59.1943 69.4335L56.8075 71.1299L57.7191 68.385L55.3324 66.6886H58.2827L59.1943 63.9439Z" fill="white"/>
<path d="M69.4272 63.9439L70.3388 66.6886H73.2891L70.9024 68.385L71.814 71.1299L69.4272 69.4335L67.0405 71.1299L67.9521 68.385L65.5653 66.6886H68.5156L69.4272 63.9439Z" fill="white"/>
<path d="M79.7415 63.9439L80.6346 66.6886H83.5263L81.1865 68.385L82.0796 71.1299L79.7415 69.4335L77.4022 71.1299L78.2958 68.385L75.9567 66.6886H78.8479L79.7415 63.9439Z" fill="white"/>
<path d="M45.3518 18.6399L46.0274 20.7153H48.2135L46.445 21.9979L47.1205 24.0731L45.3518 22.7906L43.5833 24.0731L44.2589 21.9979L42.4904 20.7153H44.6765L45.3518 18.6399Z" fill="white"/>
<path d="M53.1504 18.637L53.8398 20.7123H56.0703L54.2658 21.995L54.955 24.0702L53.1504 22.7875L51.3457 24.0702L52.0351 21.995L50.2304 20.7123H52.4611L53.1504 18.637Z" fill="white"/>
<path d="M60.8871 18.637L61.5763 20.7123H63.807L62.0024 21.995L62.6916 24.0702L60.8871 22.7875L59.0824 24.0702L59.7718 21.995L57.9671 20.7123H60.1977L60.8871 18.637Z" fill="white"/>
<path d="M68.6249 18.637L69.3141 20.7123H71.5448L69.7402 21.995L70.4294 24.0702L68.6249 22.7875L66.8202 24.0702L67.5096 21.995L65.7049 20.7123H67.9355L68.6249 18.637Z" fill="white"/>
<path d="M76.4222 18.637L77.0978 20.7123H79.2838L77.5153 21.995L78.1909 24.0702L76.4222 22.7875L74.6537 24.0702L75.3293 21.995L73.5608 20.7123H75.7467L76.4222 18.637Z" fill="white"/>
<path fill-rule="evenodd" clip-rule="evenodd" d="M12.5215 54.9885C9.54031 36.3699 18.2409 17.949 35.6589 10.0386L35.8196 10.3913C18.5769 18.2221 9.94824 36.4628 12.9048 54.9273C16.1758 75.3553 32.6851 87.6067 52.9021 88.1973L52.8907 88.5848C32.5161 87.9895 15.8261 75.6273 12.5215 54.9885Z" fill="white"/>
<path d="M31.8823 14.7902C28.6635 14.8634 24.8962 16.6753 22.6732 19.3071C24.4559 20.9595 27.3241 20.3487 29.3882 20.0107C32.3342 19.5285 35.4669 18.5942 38.2468 17.2718C37.1038 14.843 34.0248 14.7415 31.8823 14.7902Z" fill="white"/>
<path d="M29.3509 10.8264C27.4443 13.7911 25.1722 16.7375 22.6995 19.3322C20.6307 17.3937 21.8794 14.1677 22.7238 12.1616C24.2533 8.52653 27.9205 5.39181 31.7544 3.7879C32.8066 6.17762 30.5211 9.00682 29.3509 10.8264Z" fill="white"/>
<path d="M22.5677 23.1037C19.5537 24.1732 16.9637 27.1837 15.6633 30.2061C17.8306 31.212 20.2944 29.7594 22.0968 28.7923C24.5718 27.4642 27.0967 25.6317 29.0834 23.511C27.2884 21.6204 24.5628 22.3959 22.5677 23.1037Z" fill="white"/>
<path d="M18.9142 20.1413C18.2544 23.5226 17.1483 27.0272 15.6955 30.2216C13.1597 29.0278 13.2563 25.6086 13.3649 23.4326C13.5503 19.7187 15.6318 15.4835 18.5298 12.7919C20.3039 14.6906 19.3345 17.9874 18.9142 20.1413Z" fill="white"/>
<path d="M16.7683 33.8367C14.2569 35.8144 12.7346 39.4795 12.382 42.7524C14.7578 43.0247 16.6568 40.8664 18.0699 39.3857C19.9936 37.3696 21.8148 34.841 22.9713 32.1955C20.7065 30.9622 18.4042 32.5484 16.7683 33.8367Z" fill="white"/>
<path d="M12.4171 32.1671C12.8649 35.5817 12.8659 39.2757 12.4179 42.7569C9.65488 42.4181 8.73845 39.1066 8.19712 37.0291C7.2625 33.4432 7.88912 28.8112 9.70976 25.3252C11.985 26.5825 12.1309 29.9846 12.4171 32.1671Z" fill="white"/>
<path d="M14.7974 45.5524C12.8101 48.4583 12.1112 53.0124 13.0049 56.6729C15.6311 56.0522 16.933 53.0842 17.9783 50.9881C19.3675 48.2023 20.5417 44.9522 20.962 41.7635C18.1136 41.1718 16.1065 43.638 14.7974 45.5524Z" fill="white"/>
<path d="M9.58039 45.2586C11.1288 48.837 12.3371 52.7755 13.0442 56.6641C10.0323 57.31 7.86452 54.1529 6.60517 52.0596C4.36308 48.3332 3.70991 43.1675 4.53124 38.7097C7.28794 39.2614 8.63693 43.0788 9.58039 45.2586Z" fill="white"/>
<path d="M16.1876 58.1958C15.1205 61.7211 15.8622 66.5135 18.0227 69.8276C20.3969 68.2846 20.7255 64.8885 21.062 62.4535C21.5056 59.2403 21.7145 55.6807 21.1633 52.3487C18.1266 52.7357 16.9003 55.8408 16.1876 58.1958Z" fill="white"/>
<path d="M10.9104 59.705C13.5746 62.7565 16.0321 66.2358 18.0589 69.8048C15.3101 71.5178 12.0845 69.1776 10.1282 67.5215C6.65763 64.5837 4.40412 59.5904 3.86987 54.883C6.75804 54.4955 9.3033 57.864 10.9104 59.705Z" fill="white"/>
<path d="M21.7867 70.1944C22.0157 74.2977 24.692 78.6034 28.2554 81.0542C29.9762 78.7024 28.8976 75.0989 28.3105 72.5836C27.5203 69.197 26.4265 65.6705 24.8011 62.5414C21.9666 64.0366 21.636 67.4921 21.7867 70.1944Z" fill="white"/>
<path d="M16.9941 73.6605C20.8547 75.8019 24.7042 78.3287 28.2833 81.0176C26.1399 83.835 21.8556 82.7116 19.1998 81.8059C14.5196 80.2101 10.3472 76.0031 8.16785 71.3292C10.931 69.9084 14.7135 72.3955 16.9941 73.6605Z" fill="white"/>
<path d="M32.782 80.2189C35.0991 84.44 40.3793 87.1937 45.3517 87.8566C45.8869 84.7879 42.5606 81.7495 40.748 79.7619C38.1673 76.932 35.4782 73.9954 32.4632 71.5486C30.2044 74.1666 31.3986 77.6987 32.782 80.2189Z" fill="white"/>
<path d="M29.4728 85.5686C34.7399 86.1152 40.0962 86.9021 45.3602 87.8095C44.8576 91.6814 38.7023 92.3063 35.908 92.5348C30.1785 93.0036 23.8048 90.7046 19.3668 86.8343C21.5711 84.2453 26.6672 85.2775 29.4728 85.5686Z" fill="white"/>
<path d="M39.6178 6.78884C36.0816 7.79584 31.9425 9.70623 29.8977 13.2327C33.6093 12.8289 37.2571 11.5106 40.8245 10.5062C44.8205 9.38095 49.028 8.5394 52.8968 6.98626C48.6598 5.29416 43.6652 5.63615 39.6178 6.78884Z" fill="white"/>
<path fill-rule="evenodd" clip-rule="evenodd" d="M108.029 54.9273C110.985 36.4628 102.357 18.2224 85.1146 10.3913L85.2755 10.0386C102.693 17.9492 111.394 36.3699 108.412 54.9885C105.109 75.6273 88.4182 87.9895 68.0436 88.5848L68.0324 88.1973C88.2493 87.6067 104.758 75.3553 108.029 54.9273Z" fill="white"/>
<path d="M89.0522 14.7902C92.2706 14.8634 96.0377 16.6753 98.2616 19.3071C96.4786 20.9595 93.6095 20.3487 91.5465 20.0107C88.6001 19.5285 85.467 18.5942 82.6879 17.2718C83.8304 14.843 86.9088 14.7415 89.0522 14.7902Z" fill="white"/>
<path d="M91.5835 10.8264C93.4904 13.7911 95.7625 16.7375 98.2342 19.3322C100.304 17.3937 99.0549 14.1677 98.2101 12.1616C96.6814 8.52653 93.014 5.39181 89.1793 3.7879C88.1269 6.17762 90.4136 9.00682 91.5835 10.8264Z" fill="white"/>
<path d="M98.3678 23.1037C101.382 24.1732 103.971 27.1837 105.271 30.2061C103.104 31.212 100.64 29.7594 98.8377 28.7923C96.3628 27.4642 93.838 25.6317 91.8522 23.511C93.6465 21.6204 96.3724 22.3959 98.3678 23.1037Z" fill="white"/>
<path d="M102.021 20.1413C102.68 23.5226 103.786 27.0272 105.239 30.2216C107.775 29.0278 107.679 25.6086 107.569 23.4326C107.384 19.7187 105.303 15.4835 102.405 12.7919C100.63 14.6906 101.601 17.9874 102.021 20.1413Z" fill="white"/>
<path d="M104.166 33.8367C106.678 35.8144 108.2 39.4795 108.552 42.7524C106.177 43.0247 104.278 40.8664 102.866 39.3857C100.941 37.3696 99.1193 34.841 97.9639 32.1955C100.228 30.9622 102.531 32.5484 104.166 33.8367Z" fill="white"/>
<path d="M108.519 32.1671C108.07 35.5813 108.07 39.2757 108.517 42.7569C111.28 42.4181 112.197 39.1066 112.738 37.0291C113.673 33.4432 113.045 28.8112 111.225 25.3252C108.95 26.5825 108.803 29.9846 108.519 32.1671Z" fill="white"/>
<path d="M106.137 45.5524C108.124 48.4583 108.823 53.0124 107.93 56.6729C105.303 56.0522 104.002 53.0844 102.956 50.9881C101.567 48.2023 100.392 44.9522 99.9722 41.7635C102.82 41.1718 104.829 43.638 106.137 45.5524Z" fill="white"/>
<path d="M111.354 45.2586C109.806 48.837 108.597 52.7755 107.891 56.6641C110.902 57.31 113.069 54.1529 114.329 52.0596C116.571 48.3332 117.224 43.1675 116.404 38.7097C113.647 39.2614 112.297 43.0788 111.354 45.2586Z" fill="white"/>
<path d="M104.747 58.1958C105.814 61.7211 105.073 66.5135 102.912 69.8276C100.539 68.2846 100.209 64.8885 99.8724 62.4535C99.4299 59.2403 99.2207 55.6807 99.7711 52.3487C102.808 52.7357 104.034 55.8408 104.747 58.1958Z" fill="white"/>
<path d="M110.023 59.705C107.36 62.7566 104.903 66.2358 102.875 69.8048C105.624 71.5178 108.85 69.1776 110.807 67.5215C114.276 64.5837 116.531 59.5904 117.065 54.883C114.177 54.4955 111.631 57.864 110.023 59.705Z" fill="white"/>
<path d="M99.1467 70.1944C98.9182 74.2977 96.2421 78.6034 92.6793 81.0542C90.9575 78.7024 92.0373 75.0991 92.623 72.5836C93.4131 69.197 94.5074 65.6705 96.1326 62.5414C98.968 64.0366 99.2979 67.4921 99.1467 70.1944Z" fill="white"/>
<path d="M103.94 73.6605C100.08 75.8019 96.2308 78.3287 92.652 81.0176C94.7954 83.835 99.0791 82.7116 101.734 81.8059C106.415 80.2101 110.588 76.0031 112.767 71.3292C110.004 69.9084 106.221 72.3955 103.94 73.6605Z" fill="white"/>
<path d="M88.1527 80.2189C85.8355 84.44 80.5557 87.1937 75.5827 87.8566C75.0475 84.7879 78.3737 81.7495 80.1872 79.7619C82.7667 76.932 85.4557 73.9954 88.4713 71.5486C90.7306 74.1666 89.535 77.6987 88.1527 80.2189Z" fill="white"/>
<path d="M91.4612 85.5686C86.1943 86.1152 80.8389 86.9021 75.574 87.8095C76.0767 91.6814 82.2325 92.3063 85.0261 92.5348C90.7564 93.0036 97.1304 90.7046 101.567 86.8343C99.3639 84.2453 94.2676 85.2775 91.4612 85.5686Z" fill="white"/>
<path d="M81.3169 6.78884C84.8523 7.79584 88.9927 9.70623 91.0364 13.2327C87.3256 12.8289 83.6776 11.5106 80.11 10.5062C76.1141 9.38095 71.9065 8.5394 68.0377 6.98626C72.2749 5.29416 77.2693 5.63615 81.3169 6.78884Z" fill="white"/>
<path d="M62.7668 4.96388L60.9524 0.967529L59.1722 4.88951L55.0319 2.32711L57.6924 7.90793H64.3087L66.8731 2.32711L62.7668 4.96388Z" fill="white"/>
<path d="M64.2662 8.77521H57.6394V9.75136H64.2662V8.77521Z" fill="white"/>
<path d="M61.4263 84.2899L62.4942 87.5703H65.9496L63.1541 89.5977L64.2218 92.8781L61.4263 90.8507L58.6309 92.8781L59.6987 89.5977L56.9032 87.5703H60.3586L61.4263 84.2899Z" fill="white"/>
<path d="M29.1295 41.0317H27.0894L30.1979 32.0496H32.6513L35.7555 41.0317H33.7154L31.4598 34.1022H31.3895L29.1295 41.0317ZM29.002 37.5011H33.8209V38.9835H29.002V37.5011Z" fill="white"/>
<path d="M37.9594 41.0317L35.3828 32.0496H37.4625L38.953 38.2906H39.0278L40.6722 32.0496H42.4529L44.0929 38.3037H44.172L45.6625 32.0496H47.7422L45.1657 41.0317H43.3102L41.5955 35.1591H41.5251L39.8148 41.0317H37.9594Z" fill="white"/>
<path d="M49.4064 41.0317H47.3663L50.4748 32.0496H52.9282L56.0323 41.0317H53.9922L51.7367 34.1022H51.6663L49.4064 41.0317ZM49.2789 37.5011H54.0977V38.9835H49.2789V37.5011Z" fill="white"/>
<path d="M57.1161 41.0317V32.0496H60.6687C61.3488 32.0496 61.9291 32.171 62.4098 32.4136C62.8935 32.6534 63.2613 32.994 63.5134 33.4355C63.7684 33.8741 63.896 34.3902 63.896 34.9837C63.896 35.5802 63.767 36.0933 63.509 36.5231C63.2511 36.95 62.8774 37.2775 62.3879 37.5055C61.9013 37.7336 61.3121 37.8476 60.6204 37.8476H58.2417V36.3214H60.3126C60.676 36.3214 60.978 36.2717 61.2183 36.1722C61.4587 36.0728 61.6375 35.9237 61.7547 35.7249C61.8749 35.5261 61.935 35.279 61.935 34.9837C61.935 34.6855 61.8749 34.434 61.7547 34.2293C61.6375 34.0247 61.4572 33.8697 61.2139 33.7645C60.9736 33.6563 60.6702 33.6022 60.3038 33.6022H59.0199V41.0317H57.1161ZM61.979 36.9441L64.2169 41.0317H62.1153L59.9257 36.9441H61.979Z" fill="white"/>
<path d="M68.4334 41.0317H65.2414V32.0496H68.4598C69.3655 32.0496 70.1452 32.2294 70.7989 32.5891C71.4525 32.9458 71.9552 33.4589 72.307 34.1285C72.6617 34.798 72.839 35.5992 72.839 36.5319C72.839 37.4675 72.6617 38.2716 72.307 38.944C71.9552 39.6165 71.4496 40.1326 70.7901 40.4922C70.1335 40.8519 69.348 41.0317 68.4334 41.0317ZM67.1452 39.4046H68.3543C68.9171 39.4046 69.3905 39.3051 69.7744 39.1063C70.1614 38.9046 70.4516 38.5932 70.645 38.1722C70.8414 37.7482 70.9396 37.2014 70.9396 36.5319C70.9396 35.8682 70.8414 35.3258 70.645 34.9048C70.4516 34.4837 70.1628 34.1738 69.7788 33.975C69.3949 33.7762 68.9215 33.6767 68.3587 33.6767H67.1452V39.4046Z" fill="white"/>
<path d="M76.1531 32.0496V41.0317H74.2493V32.0496H76.1531Z" fill="white"/>
<path d="M85.2511 32.0496V41.0317H83.6067L79.6892 35.3784H79.6232V41.0317H77.7194V32.0496H79.3902L83.277 37.6985H83.3561V32.0496H85.2511Z" fill="white"/>
<path d="M92.7949 34.953C92.7333 34.7396 92.6469 34.551 92.5355 34.3872C92.4241 34.2206 92.2878 34.0802 92.1266 33.9662C91.9683 33.8492 91.7866 33.7601 91.5814 33.6987C91.3791 33.6373 91.1549 33.6066 90.9087 33.6066C90.4485 33.6066 90.044 33.7206 89.6951 33.9487C89.3493 34.1767 89.0796 34.5086 88.8861 34.9442C88.6927 35.377 88.596 35.9062 88.596 36.5319C88.596 37.1576 88.6912 37.6897 88.8817 38.1283C89.0723 38.5669 89.3419 38.9017 89.6907 39.1326C90.0396 39.3607 90.4514 39.4747 90.9262 39.4747C91.3571 39.4747 91.725 39.3987 92.0298 39.2467C92.3376 39.0917 92.5721 38.8739 92.7333 38.5932C92.8975 38.3125 92.9795 37.9806 92.9795 37.5976L93.3665 37.6546H91.045V36.2249H94.813V37.3564C94.813 38.1458 94.6459 38.8242 94.3118 39.3914C93.9776 39.9557 93.5174 40.3914 92.9312 40.6984C92.3449 41.0024 91.6737 41.1545 90.9175 41.1545C90.0733 41.1545 89.3317 40.9688 88.6927 40.5975C88.0537 40.2232 87.5554 39.6926 87.1978 39.0054C86.8431 38.3154 86.6658 37.4967 86.6658 36.5494C86.6658 35.8214 86.7713 35.1723 86.9823 34.6021C87.1963 34.0291 87.4953 33.5437 87.8793 33.1461C88.2633 32.7484 88.7103 32.4458 89.2203 32.2382C89.7303 32.0306 90.2829 31.9268 90.8779 31.9268C91.3879 31.9268 91.8628 32.0014 92.3024 32.1505C92.7421 32.2967 93.132 32.5043 93.472 32.7733C93.8149 33.0423 94.0949 33.3624 94.3118 33.7338C94.5287 34.1022 94.6679 34.5086 94.7295 34.953H92.7949Z" fill="white"/>
<path d="M47.7092 55.1463H44.5171V46.1643H47.7356C48.6413 46.1643 49.421 46.3441 50.0747 46.7037C50.7283 47.0604 51.231 47.5736 51.5828 48.2431C51.9374 48.9127 52.1148 49.7138 52.1148 50.6465C52.1148 51.5822 51.9374 52.3862 51.5828 53.0587C51.231 53.7312 50.7254 54.2472 50.0659 54.6069C49.4093 54.9665 48.6237 55.1463 47.7092 55.1463ZM46.421 53.5192H47.6301C48.1929 53.5192 48.6662 53.4198 49.0502 53.221C49.4371 53.0192 49.7273 52.7078 49.9208 52.2868C50.1172 51.8629 50.2154 51.3161 50.2154 50.6465C50.2154 49.9828 50.1172 49.4404 49.9208 49.0194C49.7273 48.5984 49.4386 48.2885 49.0546 48.0896C48.6706 47.8908 48.1973 47.7914 47.6345 47.7914H46.421V53.5192Z" fill="white"/>
<path d="M56.7171 55.1463H53.525V46.1643H56.7435C57.6492 46.1643 58.4289 46.3441 59.0826 46.7037C59.7362 47.0604 60.2389 47.5736 60.5907 48.2431C60.9454 48.9127 61.1227 49.7138 61.1227 50.6465C61.1227 51.5822 60.9454 52.3862 60.5907 53.0587C60.2389 53.7312 59.7333 54.2472 59.0738 54.6069C58.4172 54.9665 57.6316 55.1463 56.7171 55.1463ZM55.4289 53.5192H56.638C57.2008 53.5192 57.6741 53.4198 58.0581 53.221C58.445 53.0192 58.7352 52.7078 58.9287 52.2868C59.1251 51.8629 59.2233 51.3161 59.2233 50.6465C59.2233 49.9828 59.1251 49.4404 58.9287 49.0194C58.7352 48.5984 58.4465 48.2885 58.0625 48.0896C57.6785 47.8908 57.2052 47.7914 56.6424 47.7914H55.4289V53.5192Z" fill="white"/>
<path d="M63.5772 55.1463H61.5371L64.6456 46.1643H67.099L70.2031 55.1463H68.163L65.9075 48.2168H65.8371L63.5772 55.1463ZM63.4497 51.6158H68.2685V53.0982H63.4497V51.6158Z" fill="white"/>
<path d="M71.2869 55.1463V46.1643H74.8395C75.5225 46.1643 76.1043 46.2944 76.5851 46.5546C77.0658 46.8119 77.4322 47.1701 77.6842 47.6291C77.9393 48.0852 78.0668 48.6115 78.0668 49.208C78.0668 49.8045 77.9378 50.3308 77.6799 50.7869C77.4219 51.243 77.0482 51.5982 76.5587 51.8526C76.0721 52.107 75.4829 52.2342 74.7912 52.2342H72.5268V50.7123H74.4834C74.8498 50.7123 75.1517 50.6495 75.3891 50.5237C75.6295 50.3951 75.8083 50.2182 75.9255 49.9931C76.0457 49.765 76.1058 49.5033 76.1058 49.208C76.1058 48.9098 76.0457 48.6495 75.9255 48.4273C75.8083 48.2022 75.6295 48.0282 75.3891 47.9054C75.1488 47.7797 74.8439 47.7168 74.4746 47.7168H73.1907V55.1463H71.2869Z" fill="white"/>
<path d="M39.2817 75V72.8182H41.3992V73.0526H39.7066V73.7898H41.2896V74.0242H39.7066V74.7656H41.4266V75H39.2817Z" fill="white"/>
<path d="M42.3089 72.8182L43.3505 74.6548H43.3917L44.4333 72.8182H44.8787L43.5904 75H43.1518L41.8635 72.8182H42.3089Z" fill="white"/>
<path d="M45.4252 75V72.8182H47.5427V73.0526H45.8501V73.7898H47.4331V74.0242H45.8501V74.7656H47.5701V75H45.4252Z" fill="white"/>
<path d="M51.0907 72.8182V75H50.6795L48.7676 73.2869H48.7334V75H48.3085V72.8182H48.7197L50.6384 74.5355H50.6727V72.8182H51.0907Z" fill="white"/>
<path d="M51.749 73.0526V72.8182H54.3805V73.0526H53.2772V75H52.8523V73.0526H51.749Z" fill="white"/>
<path d="M59.3534 73.9091C59.3534 74.1392 59.2866 74.3381 59.153 74.5057C59.0193 74.6733 58.836 74.8026 58.603 74.8935C58.37 74.9844 58.1039 75.0298 57.8047 75.0298C57.5054 75.0298 57.2393 74.9844 57.0063 74.8935C56.7733 74.8026 56.59 74.6733 56.4564 74.5057C56.3228 74.3381 56.256 74.1392 56.256 73.9091C56.256 73.679 56.3228 73.4801 56.4564 73.3125C56.59 73.1449 56.7733 73.0156 57.0063 72.9247C57.2393 72.8338 57.5054 72.7884 57.8047 72.7884C58.1039 72.7884 58.37 72.8338 58.603 72.9247C58.836 73.0156 59.0193 73.1449 59.153 73.3125C59.2866 73.4801 59.3534 73.679 59.3534 73.9091ZM58.9422 73.9091C58.9422 73.7202 58.8914 73.5607 58.7898 73.4308C58.6892 73.3008 58.5528 73.2024 58.3803 73.1357C58.209 73.0689 58.0171 73.0355 57.8047 73.0355C57.5922 73.0355 57.3998 73.0689 57.2273 73.1357C57.056 73.2024 56.9195 73.3008 56.8179 73.4308C56.7174 73.5607 56.6671 73.7202 56.6671 73.9091C56.6671 74.098 56.7174 74.2575 56.8179 74.3874C56.9195 74.5174 57.056 74.6158 57.2273 74.6825C57.3998 74.7493 57.5922 74.7827 57.8047 74.7827C58.0171 74.7827 58.209 74.7493 58.3803 74.6825C58.5528 74.6158 58.6892 74.5174 58.7898 74.3874C58.8914 74.2575 58.9422 74.098 58.9422 73.9091Z" fill="white"/>
<path d="M60.0678 75V72.8182H61.2533C61.5274 72.8182 61.7524 72.8473 61.9283 72.9055C62.1042 72.9631 62.2344 73.0423 62.3189 73.1431C62.4034 73.244 62.4457 73.3587 62.4457 73.4872C62.4457 73.6158 62.4034 73.7298 62.3189 73.8292C62.2344 73.9286 62.1048 74.0068 61.93 74.0636C61.7553 74.1197 61.532 74.1477 61.2602 74.1477H60.3008V73.9091H61.2465C61.4338 73.9091 61.5845 73.8921 61.6987 73.858C61.8141 73.8239 61.8975 73.7756 61.9489 73.7131C62.0014 73.6499 62.0277 73.5746 62.0277 73.4872C62.0277 73.3999 62.0014 73.3235 61.9489 73.2582C61.8963 73.1928 61.8124 73.1424 61.697 73.1069C61.5817 73.0707 61.4292 73.0526 61.2396 73.0526H60.4927V75H60.0678ZM61.7193 74.0199L62.5827 75H62.0893L61.2396 74.0199H61.7193Z" fill="white"/>
<path d="M65.5521 73.5C65.5144 73.4283 65.4647 73.364 65.4031 73.3072C65.3425 73.2497 65.27 73.2006 65.1855 73.1602C65.1021 73.1197 65.0073 73.0888 64.9011 73.0675C64.7949 73.0462 64.6784 73.0355 64.5516 73.0355C64.3438 73.0355 64.1547 73.0689 63.9846 73.1357C63.8144 73.2024 63.679 73.3008 63.5785 73.4308C63.478 73.5607 63.4278 73.7202 63.4278 73.9091C63.4278 74.098 63.4786 74.2575 63.5802 74.3874C63.6819 74.5174 63.8195 74.6158 63.9931 74.6825C64.1667 74.7493 64.362 74.7827 64.579 74.7827C64.78 74.7827 64.9571 74.756 65.1101 74.7028C65.2643 74.6488 65.3842 74.5728 65.4699 74.4748C65.5567 74.3761 65.6001 74.26 65.6001 74.1264L65.7303 74.1435H64.675V73.9091H66.0113V74.1435C66.0113 74.3232 65.9496 74.4794 65.8262 74.6122C65.704 74.745 65.535 74.848 65.3191 74.9212C65.1044 74.9936 64.8577 75.0298 64.579 75.0298C64.2684 75.0298 63.9954 74.9844 63.7601 74.8935C63.526 74.8026 63.3433 74.6733 63.2119 74.5057C63.0817 74.3381 63.0166 74.1392 63.0166 73.9091C63.0166 73.7365 63.0537 73.5813 63.128 73.4435C63.2033 73.3051 63.3096 73.1872 63.4466 73.0899C63.5837 72.9926 63.7459 72.918 63.9332 72.8661C64.1205 72.8143 64.3266 72.7884 64.5516 72.7884C64.7366 72.7884 64.9091 72.8058 65.069 72.8406C65.23 72.8747 65.3734 72.9233 65.499 72.9865C65.6258 73.049 65.7314 73.1239 65.816 73.2113C65.9005 73.2979 65.9587 73.3942 65.9907 73.5H65.5521Z" fill="white"/>
<path d="M66.7745 75H66.329L67.6174 72.8182H68.0559L69.3442 75H68.8988L67.8504 73.1634H67.8229L66.7745 75ZM66.9389 74.1477H68.7344V74.3821H66.9389V74.1477Z" fill="white"/>
<path d="M72.673 72.8182V75H72.2618L70.3499 73.2869H70.3156V75H69.8908V72.8182H70.3019L72.2207 74.5355H72.2549V72.8182H72.673Z" fill="white"/>
<path d="M73.948 72.8182V75H73.5231V72.8182H73.948Z" fill="white"/>
<path d="M74.6834 75V74.8082L76.5747 73.0526H74.6628V72.8182H77.0818V73.01L75.1905 74.7656H77.1024V75H74.6834Z" fill="white"/>
<path d="M77.8151 75V72.8182H79.9326V73.0526H78.24V73.7898H79.8229V74.0242H78.24V74.7656H79.96V75H77.8151Z" fill="white"/>
<path d="M80.6984 75V72.8182H81.8839C82.158 72.8182 82.383 72.8473 82.5589 72.9055C82.7348 72.9631 82.865 73.0423 82.9495 73.1431C83.034 73.244 83.0763 73.3587 83.0763 73.4872C83.0763 73.6158 83.034 73.7298 82.9495 73.8292C82.865 73.9286 82.7353 74.0068 82.5606 74.0636C82.3859 74.1197 82.1626 74.1477 81.8908 74.1477H80.9314V73.9091H81.877C82.0644 73.9091 82.2151 73.8921 82.3293 73.858C82.4447 73.8239 82.5281 73.7756 82.5794 73.7131C82.632 73.6499 82.6583 73.5746 82.6583 73.4872C82.6583 73.3999 82.632 73.3235 82.5794 73.2582C82.5269 73.1928 82.443 73.1424 82.3276 73.1069C82.2123 73.0707 82.0598 73.0526 81.8702 73.0526H81.1232V75H80.6984ZM82.3499 74.0199L83.2133 75H82.7199L81.8702 74.0199H82.3499Z" fill="white"/>
</svg>
