<svg width="490" height="427" viewBox="0 0 490 427" fill="none" xmlns="http://www.w3.org/2000/svg">
<path d="M223.454 281.521C223.454 281.521 234.35 277.055 238.417 273.948C242.485 270.841 247.542 263.121 247.542 263.121C247.542 263.121 303.091 298.08 339.31 293.093C347.655 291.944 363.916 287.11 364.953 278.593C367.785 255.337 328.608 249.393 337.166 237.6C342.389 230.401 358.616 241.115 358.616 241.115L425.921 269.964C425.921 269.964 402.669 319.912 346.242 321.913C276.829 324.375 223.454 281.521 223.454 281.521Z" fill="white"/>
<path fill-rule="evenodd" clip-rule="evenodd" d="M170.092 85.9153C169.46 85.6992 166.068 82.0793 161.761 81.4204C159.804 81.121 161.58 83.2927 159.426 83.3123C153.011 83.3705 142.586 82.3202 140.655 83.3123C139.219 84.0472 142.38 86.6148 140.655 86.7327C124.373 87.8449 99.5331 102.012 94.1439 108.885C92.4288 111.072 106.3 107.361 104.09 108.442C101.609 109.656 98.8583 117.603 97.2134 123.741C96.0747 127.968 95.3577 133.407 95.1046 139.324C94.8937 144.433 94.9781 145.278 95.8216 148.072C96.7917 151.196 97.5508 152.115 98.8583 151.674C99.3222 151.527 99.5331 150.975 99.5331 149.946C99.5331 149.138 100.039 146.712 100.672 144.543L101.768 140.648L102.232 142.265C102.823 144.139 106.281 149.946 109.402 154.173C109.571 154.397 110.295 154.112 110.948 152.736C111.543 151.483 111.301 149.48 112.312 147.334C114.615 142.445 119.137 136.089 124.373 131.001C132.111 123.482 134.678 114.779 141.931 107.793C155.468 94.7568 172.457 86.7243 170.092 85.9153Z" fill="white"/>
<path fill-rule="evenodd" clip-rule="evenodd" d="M104.282 110.217C102.111 111.738 98.8876 124.08 98.8324 124.287C97.6936 128.513 96.5959 143.191 97.718 145.97C98.84 148.749 101.982 138.731 101.982 138.731C101.982 138.731 106.731 149.477 110.927 152.424C111.106 152.549 105.939 139.129 104.282 131.294C102.095 120.952 105.518 109.351 104.282 110.217Z" fill="#E7EAEE"/>
<path fill-rule="evenodd" clip-rule="evenodd" d="M185.217 326.371C189.266 325.599 196.098 322.911 198.714 321.992C201.33 321.073 209.3 311.265 212.168 300.203C214.235 292.043 215.289 280.429 214.108 278.481C213.934 278.205 213.296 272.924 214.994 274.648C218.769 278.481 223.25 284.499 237.389 273.716C241.24 270.779 246.344 266.988 245 263.637C241.24 254.262 224.94 235.383 222.455 233.952C219.484 232.242 204.466 233.696 182.118 227.947C156.773 221.428 146.219 202.232 136.301 204.731C128.28 206.752 109.062 219.171 104.239 227.035C81.4697 264.162 109.062 290.177 115.346 297.649L121.447 299.945L121.658 304.687L121.953 307.664C122.502 313.36 122.713 313.875 125.665 315.786C133.046 320.674 147.596 325.232 160.755 326.849C166.871 327.584 180.156 327.327 185.217 326.371Z" fill="white"/>
<path fill-rule="evenodd" clip-rule="evenodd" d="M123.847 302.951L124.142 305.928C124.69 311.625 124.901 312.14 127.854 314.051C132.208 316.934 139.057 319.703 146.644 321.821C151.918 323.293 157.548 324.45 162.944 325.113C169.06 325.849 182.345 325.591 187.406 324.636C189.908 324.163 169.33 310.076 157.208 314.051C147.899 317.103 125.957 293.818 134.878 287.735C144.886 280.91 126.547 253.994 125.957 248.151C125.366 242.307 123.041 240.911 122.973 241.116C122.905 241.321 122.905 242.02 123.088 243.705C123.875 250.966 123.847 302.951 123.847 302.951Z" fill="#E7EAEE"/>
<path fill-rule="evenodd" clip-rule="evenodd" d="M121.65 246.483C122.535 246.332 123.393 246.836 123.565 247.608C126.748 261.859 140.213 271.507 164.289 276.552C188.508 281.627 205.005 281.353 213.698 275.936C214.431 275.478 213.884 279.394 213.347 279.695C207.678 282.863 188.402 287.59 165.4 283.318C135.989 277.855 122.18 256.304 120.359 248.152C120.186 247.38 120.764 246.633 121.65 246.483Z" fill="#9B0896"/>
<path fill-rule="evenodd" clip-rule="evenodd" d="M109.385 220.771C110.168 220.381 139.38 249.555 179.468 256.159C219.556 262.763 229.262 258.563 230.823 249.555C230.957 248.778 231.789 248.243 232.681 248.36C233.573 248.477 234.187 249.203 234.053 249.98C232.075 261.396 213.526 264.111 178.918 258.965C144.746 253.883 121.317 241.81 108.779 222.713C108.331 222.031 108.602 221.161 109.385 220.771Z" fill="#9B0896"/>
<path fill-rule="evenodd" clip-rule="evenodd" d="M277.642 219.153C276.546 218.822 275.365 218.087 274.606 217.242L273.34 215.882L277.811 212.023C284.686 206.142 289.958 200.115 294.513 192.948C296.031 190.559 299.869 182.583 299.869 181.811C299.869 181.554 300.333 180.525 300.881 179.459C301.725 177.916 302.358 177.328 304.171 176.445C306.322 175.343 308.768 174.975 309.823 175.6C311.847 176.776 311.847 180.488 309.823 186.883C307.587 193.903 304.593 198.939 298.393 206.179C297.423 207.282 295.609 209.45 294.302 210.957C290.801 215 288.524 216.948 285.445 218.455C282.408 219.925 280.637 220.108 277.642 219.153ZM307.925 215.845L310.961 217.021C311.591 217.274 318.538 220.183 326.882 223.677C340.334 229.31 357.42 236.464 357.524 236.464C357.692 236.464 358.484 234.869 358.663 233.009C359.084 229.003 360.645 223.563 362.458 219.778C363.302 218.087 363.977 215.974 363.977 215.79C363.977 215.706 363.291 215.465 362.169 215.071C360.832 214.601 358.877 213.914 356.722 213.015C346.094 208.568 325.301 199.49 322.729 198.13C320.198 196.844 319.692 196.733 319.692 197.579C319.692 198.681 317.119 203.79 315.137 206.546C314.083 208.053 312.016 210.773 310.54 212.574L307.925 215.845ZM356.807 229.848C358.016 230.459 355.921 231.355 355.415 231.502C352.435 231.723 348.927 231.234 346.052 229.775C344.549 228.846 332.714 223.116 324.864 219.316C321.275 217.578 318.518 216.244 317.963 215.955C316.191 215.037 314.504 214.044 314.209 213.75C313.323 212.758 314.167 212.317 316.655 212.501C318.151 212.611 354.195 228.529 356.807 229.848ZM185.361 326.069C188.615 325.448 193.665 323.591 196.881 322.408C197.667 322.119 198.344 321.87 198.858 321.69C201.473 320.771 209.444 310.963 212.312 299.9C214.378 291.741 215.433 280.127 214.252 278.179C213.54 277.051 217.77 280.835 220.92 283.654C221.875 284.508 222.731 285.274 223.32 285.787C241.708 301.701 269.081 314.491 297.507 320.482C311.678 323.496 321.759 324.562 335.297 324.562C358.03 324.562 375.955 320.666 392.235 312.102C393.008 311.695 393.733 311.322 394.423 310.965C400.098 308.037 403.479 306.293 412.732 297.217C423.111 287.036 432.344 263.404 435.423 255.245C436.773 251.569 440.062 236.951 440.062 233.303C440.062 228.984 438.333 226.945 435.971 224.85C431.796 221.285 426.144 219.998 421.463 221.542L419.269 222.277L418.595 220.329C417.625 217.389 415.6 215.037 412.479 213.272C407.84 210.589 407.165 210.406 402.99 210.406C399.742 210.406 398.856 210.553 396.79 211.398L394.386 212.354L393.88 211.03C392.909 208.311 389.656 204.519 387.131 203.422C384.893 202.45 381.017 202.361 378.317 202.798C372.412 203.753 368.194 206.142 366.465 209.487C365.959 210.516 365.326 211.324 365.073 211.324C364.862 211.324 356.554 209.302 346.642 205.48C344.971 204.833 343.4 204.227 341.925 203.657L341.925 203.657L341.925 203.657C324.127 196.782 320.269 195.292 320.62 193.426C320.915 191.845 320.831 190.963 320.325 189.603C319.439 187.324 318.427 186.7 315.559 186.7C313.281 186.7 313.281 186.7 313.534 185.707C314.884 180.084 314.842 176.85 313.408 174.792C312.438 173.432 311.299 172.88 308.684 172.55C307.166 172.366 306.449 172.476 304.762 173.285C303.623 173.799 302.653 174.167 302.568 174.093C302.484 174.02 302.779 171.998 303.243 169.609C306.702 151.931 304.03 136.699 295.215 120.528C295.131 120.373 295.033 120.19 294.921 119.981C292.241 114.967 281.466 94.8077 250.65 84.6355C249.255 84.1751 247.935 83.7299 246.667 83.302C236.169 79.7613 229.191 77.4074 212.354 77.4318C193.482 77.4592 187.091 79.784 174.649 84.7458C172.919 85.4441 171.401 85.8484 171.275 85.7013C171.148 85.5176 170.347 85.0765 169.545 84.709C168.744 84.3415 167.015 83.4226 165.749 82.6876C162.122 80.5559 159.887 79.6738 158.748 79.8943C157.441 80.1883 157.441 81.1439 158.748 81.585C159.297 81.7687 159.929 82.3935 160.182 83.0183C160.731 84.3415 161.363 84.4885 161.743 83.3859C161.911 82.9816 162.164 82.6876 162.291 82.7611C162.339 82.782 162.5 82.8475 162.745 82.9475C163.361 83.199 164.512 83.6685 165.749 84.1945C167.479 84.9295 169.377 85.7013 169.883 85.8851C170.811 86.1791 170.515 86.3997 166.509 88.4578C150.861 96.4701 138.124 108.929 130.996 123.116C129.9 125.248 128.93 126.571 127.918 127.306C125.345 129.181 120.284 134.51 119.103 136.605C118.47 137.744 117.121 139.508 116.066 140.537C115.054 141.566 113.957 142.89 113.578 143.441C113.24 144.029 112.903 144.433 112.776 144.36C112.692 144.249 112.819 142.449 113.114 140.354C113.746 135.465 113.746 134.179 113.24 134.069C112.481 133.885 111.385 136.458 110.921 139.655C110.583 141.603 110.499 144.544 110.71 147.557L110.963 152.335L107.968 148.109C106.938 146.694 105.923 145.279 105.202 144.276L105.202 144.274L105.201 144.273L105.201 144.273L105.2 144.271L105.198 144.27L105.197 144.268C104.741 143.633 104.404 143.163 104.257 142.963C103.16 141.566 102.528 139.472 102.992 138.773C103.245 138.369 103.202 138.185 102.781 138.185C101.895 138.185 100.166 140.648 99.027 143.478C98.4787 144.801 97.9304 145.903 97.7617 145.903C97.1291 145.903 97.4243 132.746 98.0991 128.519C99.4909 120.176 103.16 109.885 104.805 109.885C105.143 109.885 105.438 109.738 105.438 109.518C105.438 108.856 104.341 109.113 103.455 109.959C101.473 111.833 98.8583 117.603 97.2134 123.741C96.0747 127.968 95.3577 133.407 95.1046 139.325C94.8938 144.433 94.9781 145.279 95.8216 148.072C96.7917 151.196 97.5508 152.115 98.8583 151.674C99.3222 151.527 99.5331 150.975 99.5331 149.946C99.5331 149.138 100.039 146.712 100.672 144.544L101.768 140.648L102.232 142.265C102.823 144.139 106.281 149.946 109.402 154.173C111.553 157.04 111.595 157.223 112.312 161.707C112.692 164.243 113.873 170.412 116.614 179.9C119.037 188.284 132.654 196.601 136.054 198.677L136.054 198.677C136.502 198.951 136.773 199.116 136.817 199.159C137.238 199.563 137.829 199.784 138.166 199.674C138.546 199.563 138.757 199.71 138.757 200.115C138.757 200.482 139.052 200.96 139.389 201.18C139.811 201.438 140.106 202.43 140.191 204.158C140.402 207.612 143.354 214.228 145.631 216.396C147.108 217.793 150.187 218.381 153.603 217.867C155.838 217.572 156.471 217.352 156.26 216.911C156.133 216.617 156.935 216.984 158.031 217.72C170.853 226.246 183.843 231.355 198.436 233.56C204.087 234.406 213.451 234.883 218.554 234.553C221.888 234.362 222.759 234.313 222.901 234.611C222.952 234.717 222.911 234.865 222.856 235.067C222.561 236.096 222.94 236.721 229.14 245.873C234.075 253.113 234.496 253.591 239.979 258.479C251.62 268.954 264.315 277.076 278.697 283.361C292.235 289.242 313.85 294.13 333.61 295.673C353.37 297.217 367.562 281.413 367.52 277.37C367.435 271.82 366.549 268.182 364.398 264.654C362.29 261.236 360.898 260.059 354.571 256.384C347.528 252.304 343.184 248.96 340.316 245.395C338.502 243.153 337.828 240.617 337.828 239.257C337.828 238.375 339.135 236.39 341.075 235.986C342.847 235.582 343.184 235.618 345.166 236.464C346.347 236.942 349.426 238.191 351.957 239.257C354.529 240.286 357.018 241.315 357.524 241.536C359.016 241.897 359.647 244.442 359.989 245.821C360.065 246.13 360.127 246.38 360.181 246.534C360.771 248.445 363.566 250.913 365.369 251.753C368.535 253.229 376.335 253.426 378.486 251.404C379.034 250.89 380.852 250.257 381.227 250.449C381.601 250.64 382.956 252.231 382.956 253.517C382.998 255.723 384.306 257.744 387.089 259.765C392.361 263.588 396.452 264.507 400.586 262.816C402.736 261.934 404.499 261.589 404.499 261.589C404.499 261.589 406.258 263.544 406.364 264.213C407.192 269.435 416.064 271.624 418.426 271.844C418.967 271.891 420.021 271.689 421.091 271.485C422.521 271.21 423.981 270.931 424.288 271.232C424.891 271.825 414.208 287.22 412.732 289.168C398.688 307.545 371.358 318.791 337.912 319.967C316.191 320.739 289.494 315.447 266.339 305.817C251.535 299.606 238.419 291.998 224.374 281.34C221.928 279.502 219.102 277.407 218.09 276.672C217.078 275.974 214.674 273.585 212.818 271.379C209.697 267.704 207.925 266.381 207.925 267.631C207.925 268.182 209.95 271.563 212.27 274.908C213.197 276.231 213.788 277.15 213.577 277.003C213.366 276.856 212.691 279.502 212.059 282.883C209.992 293.726 206.576 304.421 203.117 311.073C201.219 314.675 197.58 317.365 196.484 318.1C192.435 320.783 186.374 321.989 177.98 322.724C167.352 323.643 151.705 321.585 139.769 317.689C136.606 316.66 128.466 313.683 127.918 313.352C127.885 313.323 127.698 312.266 127.437 310.791L127.437 310.79C127.387 310.51 127.335 310.214 127.281 309.907L127.201 309.456C125.682 300.378 123.573 265.425 123.573 249.254C123.573 242.565 123.489 241.095 122.983 241.095C121.929 241.095 121.507 241.977 121.043 245.138C119.988 252.341 120.199 289.94 121.338 297.842L121.591 299.643L120.157 298.945C117.964 297.842 109.613 290.454 106.703 287.036C104.239 284.114 102.775 280.372 101.68 277.572C101.425 276.921 101.19 276.32 100.967 275.793C94.8516 261.018 97.0026 244.439 105.438 229.517C112.608 216.801 121.422 209.744 134.328 206.326C136.437 205.775 138.293 205.187 138.504 205.04C139.305 204.378 134.16 204.709 131.334 205.481C122.139 207.943 112.523 214.669 105.986 223.269C96.7917 235.324 92.6584 253.113 95.5686 268.292C96.2434 271.894 98.9848 279.686 99.744 280.237C99.8112 280.296 100.158 280.93 100.683 281.889L100.683 281.889C102.133 284.541 104.943 289.677 106.956 291.998C109.402 294.902 116.783 301.223 119.862 303.171L121.802 304.384L122.097 307.361C122.646 313.058 122.856 313.572 125.809 315.484C133.19 320.372 147.74 324.929 160.899 326.546C167.015 327.281 180.3 327.024 185.361 326.069ZM327.916 291.557C303.412 289.683 273.804 279.501 252.379 263.771C243.353 257.118 231.628 244.182 226.989 237.015C226.019 235.545 225.302 234.847 224.458 234.663C223.573 234.442 224.332 234.222 227.959 233.707C243.269 231.429 258.157 225.879 270.177 217.977L271.949 216.837L272.455 217.903C273.594 220.292 277.98 222.718 281.227 222.718C282.535 222.718 286.921 220.991 289.578 219.41L291.392 218.344L292.868 219.631C294.218 220.807 294.471 220.88 297.001 220.88C299.911 220.88 303.412 219.741 305.352 218.124L306.406 217.278L309.401 219.006C311.004 219.998 315.474 222.167 319.312 223.894C325.048 226.467 331.122 229.444 336.9 232.531L337.828 233.046L336.942 234.075C336.014 235.177 334.286 237.272 334.286 240.47C334.286 244.072 338.583 250.543 346.811 254.987C353.275 258.479 364.398 265.347 363.977 275.386C363.926 276.598 362.374 279.612 360.307 282.332C358.958 284.059 355.204 286.632 351.788 288.139C345.968 290.675 335.719 292.145 327.916 291.557ZM103.034 126.571C104.172 126.792 104.932 127.122 104.763 127.269C104.215 127.747 101.305 127.527 100.63 126.939C99.5753 126.057 99.8283 125.432 101.305 125.174C102.064 125.064 103.202 124.513 103.835 123.962C104.468 123.41 105.016 123.153 105.016 123.337C105.016 123.815 102.907 125.505 101.853 125.873C101.178 126.13 101.389 126.24 103.034 126.571ZM119.82 127.159C121.043 126.571 120.79 126.167 119.356 126.351C117.922 126.534 117.838 126.387 118.765 125.138C119.145 124.66 119.356 123.962 119.271 123.594C119.145 123.116 118.85 123.337 118.175 124.513C117.669 125.358 116.952 126.057 116.614 126.057C115.56 126.057 115.476 126.792 116.488 127.122C117.795 127.6 118.808 127.6 119.82 127.159ZM105.227 107.092C104.215 107.239 101.051 108.341 98.2678 109.554C95.442 110.73 93.038 111.723 92.8693 111.686C88.5674 111.282 94.5563 105.034 105.438 98.6385C115.855 92.5007 122.899 89.2664 129.436 87.6125C133.527 86.5834 138.124 86.4364 139.432 87.2817C140.149 87.7595 139.896 87.7963 136.775 87.833C130.026 87.833 122.224 90.8468 109.529 98.2342C102.949 102.057 95.3155 107.533 95.3155 108.415C95.3155 108.599 96.5386 108.231 98.057 107.643C101.305 106.357 104.636 105.695 106.113 105.989C107.673 106.357 107.336 106.835 105.227 107.092ZM121.549 110.253C125.514 109.554 125.682 109.518 125.682 109.15C125.682 108.966 124.164 108.782 122.266 108.709L118.85 108.599L122.013 105.475C123.742 103.747 125.767 102.02 126.484 101.616C128.044 100.733 128.128 100.109 126.863 99.7411L125.893 99.4839L126.948 99.1531C127.538 98.9693 128.635 98.8958 129.394 99.0061C130.532 99.1531 130.786 99.0796 130.659 98.565C130.532 98.0505 130.069 97.9402 128.002 97.977C121.971 98.0505 119.398 99.4471 124.122 100.109C125.429 100.292 126.526 100.586 126.526 100.77C126.526 100.917 126.315 101.064 126.062 101.064C125.26 101.064 118.47 107.055 117.627 108.525C116.319 110.694 117.036 111.024 121.549 110.253ZM149.385 95.9923C148.162 96.0658 147.867 96.2496 147.951 96.7641L147.964 96.839C148.01 97.1015 148.037 97.2561 147.976 97.3092C147.888 97.3852 147.619 97.2523 146.965 96.929L146.855 96.8744C146.053 96.5068 145.969 96.3231 146.433 96.029C146.728 95.8085 147.529 95.4777 148.162 95.3675L149.343 95.1102L148.457 94.3016C147.993 93.8238 147.74 93.3828 147.867 93.2358C148.204 92.9418 152.337 93.346 152.928 93.7503C153.181 93.9341 153.561 93.8973 153.814 93.6768C154.404 93.1623 155.205 93.5666 155.205 94.3751C155.205 94.8162 155.079 94.8529 154.699 94.5222C154.362 94.2281 154.067 94.2281 153.687 94.4854C153.35 94.7427 153.097 94.7427 152.886 94.4486C152.759 94.2649 151.958 94.0811 151.114 94.0811C150.318 94.0811 149.951 94.0811 149.888 94.2195C149.835 94.3377 150.002 94.5569 150.313 94.9632C150.986 95.8792 150.946 95.882 149.4 95.9913L149.385 95.9923ZM142.974 86.2159C142.974 85.7381 142.468 84.8928 141.836 84.3415L140.655 83.3124L146.981 83.5329C150.482 83.6799 154.446 84.0107 155.838 84.3415C157.23 84.6355 158.833 84.856 159.423 84.856C160.309 84.856 160.14 84.709 158.495 83.9372C155.627 82.6508 151.958 82.026 144.915 81.585C136.479 81.0704 132.22 81.7687 133.021 83.6064C133.147 83.9739 133.822 84.1577 134.834 84.1577C136.901 84.1577 140.275 85.2235 141.414 86.2159C142.637 87.2817 142.974 87.2817 142.974 86.2159ZM122.393 183.539C125.809 187.361 130.322 191.698 132.43 193.168C133.696 194.05 134.792 194.785 134.877 194.785C134.919 194.785 133.991 193.095 132.81 191.037C128.044 182.767 125.26 174.534 123.953 165.052C123.658 162.957 123.194 161.193 122.688 160.458C121.676 158.988 121.676 157.076 122.73 155.275C123.278 154.32 123.573 153.107 123.573 151.784V149.762L121.549 151.6C119.567 153.401 117.669 154.136 117.669 153.034C117.669 152.225 120.79 148.329 122.435 147.116C123.742 146.161 123.911 145.83 124.333 142.963C124.628 141.236 125.303 138.185 125.851 136.164C126.441 134.142 126.779 132.415 126.694 132.341C126.399 132.084 116.488 142.004 115.138 145.168C114.842 145.863 114.042 147.079 113.409 147.815L112.312 149.041C112.312 149.041 112.653 150.76 113.029 152.919C113.41 155.1 113.588 156.6 113.747 157.936C113.96 159.722 114.137 161.216 114.716 163.655C115.391 166.669 116.066 169.279 116.235 169.462C116.361 169.683 116.91 171.373 117.458 173.248C118.639 177.401 120.621 181.517 122.393 183.539ZM293.543 218.308L292.657 217.536C292.657 217.536 307.357 201.26 309.991 195.263C312.002 190.687 313.185 189.389 314.781 189.389C315.673 189.389 316.402 189.566 316.74 190.007C317.33 190.779 317.899 191.735 317.14 195.006C315.875 200.298 313.934 203.79 308.114 211.324C306.765 213.052 305.035 214.963 304.276 215.625C302.505 217.058 298.52 218.528 296.2 218.859C294.724 219.043 294.302 218.969 293.543 218.308Z" fill="#7C7C7C"/>
<path d="M410.328 254.262C415.575 241.803 414.781 239.149 413.871 238.889C413.871 238.889 411.867 239.882 410.981 241.977C409.337 245.909 403.706 256.2 401.598 258.038C399.109 260.206 399.109 260.206 396.579 260.206C394.048 260.206 386.75 256.885 385.756 253.612C384.166 248.374 391.012 230.179 391.18 229.15L390.041 228.451C389.282 229.076 379.407 255.171 366.423 248.372C364.936 247.593 361.784 243.925 361.53 241.977C360.125 236.317 366.573 216.525 367.67 212.46C368.652 208.821 373.762 205.444 380.046 205.444C389.704 205.444 388.407 212.801 392.733 215.393C394.65 216.542 397.801 214.459 398.772 214.301C404.213 213.419 406.297 214.446 410.286 217.205C413.365 219.334 415.643 223.549 418.15 225.033C419.543 225.858 421.021 224.731 421.505 224.519C423.489 223.651 427.747 224.298 428.928 225.033C430.659 225.691 434.901 229.245 435.572 231.312C438.609 240.68 429.017 261.448 425.396 265.343C419.402 271.792 405.081 266.72 410.328 254.262Z" fill="white"/>
<path fill-rule="evenodd" clip-rule="evenodd" d="M167.858 220.125C179.414 226.483 191.33 230.636 204.911 231.776C215.624 232.658 230.068 231.445 240.443 228.505C249.174 226.042 260.983 219.221 268.87 213.45C284.18 202.277 293.838 184.825 298.056 166.301C298.646 163.692 299.547 157.132 299.504 150.627C299.504 143.056 295.681 122.366 284.095 110.436C260.2 85.8311 220.922 74.7472 187.912 84.2177C176.004 87.634 163.326 93.8236 153.752 101.909C141.689 112.164 132.79 126.13 129.247 140.39C125.536 155.459 130.364 173.468 138.757 188.243C145.463 200.004 156.513 213.84 167.858 220.125ZM280.468 175.71C272.539 196.476 251.873 211.986 225.892 216.69C221.928 217.388 219.186 217.646 213.619 217.719C209.697 217.83 205.774 217.793 204.973 217.719C186.795 215.808 172.962 209.964 160.224 198.865C154.657 193.977 152.295 191.33 148.837 186.111C143.396 177.842 140.486 169.389 139.6 159.208C136.564 124.329 165.201 95.257 205.521 92.2432C221.337 91.0671 238.883 95.2937 252.21 103.527C257.145 106.577 266.086 114.295 268.87 117.897C270.009 119.33 281.059 133.407 282.999 141.493C285.487 152.004 284.517 165.162 280.468 175.71Z" fill="white"/>
<path fill-rule="evenodd" clip-rule="evenodd" d="M299.52 150.627C299.52 175.296 286.129 202.266 268.847 213.785C260.602 219.28 249.826 225.934 240.443 228.505C226.692 232.272 204.911 231.776 204.911 231.776C204.911 231.776 227.132 229.187 235.367 226.299C258.98 218.018 271.871 205.306 279.83 193.109C295.542 169.032 299.52 150.028 299.52 150.627Z" fill="#E7EAEE"/>
<path fill-rule="evenodd" clip-rule="evenodd" d="M205.395 213.309C194.134 212.06 182.957 208.568 173.932 203.386C168.575 200.335 160.477 193.168 156.555 188.06C150.946 180.709 147.234 172.844 145.421 164.391C144.113 158.253 144.155 148.807 145.463 143.331C146.812 137.744 148.542 133.481 151.621 128.078C155.205 121.83 159.001 117.236 164.695 112.274C174.396 103.821 185.657 98.4549 199.069 95.8822C203.413 95.0736 219.144 94.4121 219.693 95.0369C219.819 95.2206 220.663 95.6984 221.548 96.1027C222.434 96.5438 224.796 98.0874 226.736 99.5943C229.646 101.799 230.954 103.196 233.484 106.651C235.213 109.003 236.605 111.135 236.605 111.319C236.605 111.723 237.955 112.458 238.714 112.458C239.768 112.458 240.485 109.701 240.696 104.85C240.823 102.167 241.076 99.9618 241.245 99.9618C241.835 99.9618 248.33 103.086 251.367 104.85C257.314 108.305 263.26 113.156 267.647 118.228C269.629 120.507 269.924 121.095 269.924 122.492C269.924 123.778 270.346 124.77 271.653 126.755C274.943 131.754 277.516 138.038 279.076 144.985C280.089 149.652 280.089 158.473 279.034 163.361C276.166 176.813 267.647 190.191 256.554 198.681C247.149 205.848 237.153 210.259 225.344 212.427C221.295 213.199 209.149 213.714 205.395 213.309ZM175.239 188.17C175.619 187.802 175.872 187.251 175.745 186.994C175.707 186.917 175.179 186.7 174.406 186.384C172.604 185.645 169.471 184.362 168.114 183.024C162.715 177.658 160.733 173.652 159.51 165.383C158.329 157.334 159.321 151.892 161.45 143.147C162.488 138.881 165.249 135.357 166.966 133.165C168.134 131.674 168.819 130.799 168.154 130.724C166.509 130.504 166.256 130.614 164.526 132.048C160.815 135.135 159.128 137.597 157.356 142.338C154.615 149.763 154.085 169.826 159.51 178.871C164.934 187.916 174.269 189.126 175.239 188.17ZM235.213 157.297C234.497 163.007 231.46 171.263 227.917 174.865C226.272 176.556 220.234 179.459 215.138 178.871C210.215 178.303 206.365 176.299 203.075 171.998C200.249 168.286 198.79 163.781 197.803 158.106C196.099 148.306 203.539 136.899 206.745 134.069C209.992 131.165 212.312 130.136 215.264 130.1C218.132 130.1 219.988 130.651 222.898 132.452C228.212 135.686 236.605 146.202 235.213 157.297ZM178.36 126.902C179.204 126.057 179.33 125.652 179.077 124.072C178.908 122.602 178.571 122.014 177.685 121.389C176.125 120.286 174.185 120.286 172.751 121.463C171.738 122.308 171.612 122.602 171.738 124.623C171.865 126.792 171.949 126.939 173.341 127.6C175.197 128.482 177.01 128.225 178.36 126.902ZM204.678 104.225C197.086 108.966 193.797 110.914 190.38 112.752C187.681 114.222 186.837 114.259 186.837 112.936C186.837 112.237 187.428 111.466 188.946 110.253L191.055 108.562L186.964 108.084C182.367 107.57 177.896 106.467 176.926 105.622C175.323 104.188 176.715 103.858 181.27 104.593C183.295 104.887 187.217 105.254 190.001 105.328L195.062 105.512L198.731 103.196C206.787 98.1242 215.138 95.2574 219.144 96.1395C221.633 96.654 221.337 97.2421 218.512 97.5361C215.264 97.8669 213.282 98.8225 204.678 104.225Z" fill="white"/>
<path d="M215.517 173.836C215.517 173.652 215.77 173.468 216.108 173.468C216.445 173.468 216.867 173.652 216.993 173.836C217.12 174.056 216.867 174.203 216.403 174.203C215.897 174.203 215.517 174.056 215.517 173.836Z" fill="white"/>
<path d="M218.048 173.505C218.048 173.101 219.102 172.733 220.283 172.733C221.211 172.77 221.211 172.77 220.41 173.285C219.482 173.91 218.048 174.02 218.048 173.505Z" fill="white"/>
<path d="M211.51 172.549C211.384 172.255 211.215 171.741 211.089 171.447C210.962 171.079 211.173 170.896 211.721 170.896C212.185 170.896 212.565 171.116 212.565 171.41C212.565 171.704 212.691 172.182 212.818 172.513C212.987 172.917 212.86 173.101 212.396 173.101C212.017 173.101 211.595 172.843 211.51 172.549Z" fill="white"/>
<path d="M213.746 171.631C213.535 170.528 213.999 170.161 215.517 170.161C215.981 170.161 216.361 170.528 216.529 171.153C216.867 172.219 216.318 172.733 214.842 172.733C214.168 172.733 213.872 172.476 213.746 171.631Z" fill="white"/>
<path d="M209.444 171.814C208.642 171.263 208.642 171.263 209.528 171.263C210.076 171.263 210.456 171.484 210.456 171.814C210.456 172.476 210.456 172.476 209.444 171.814Z" fill="white"/>
<path d="M217.921 171.778C217.373 171.3 217.626 169.866 218.301 169.646C219.524 169.242 220.072 169.425 220.325 170.381C220.494 170.932 220.578 171.41 220.494 171.447C220.157 171.778 218.174 171.998 217.921 171.778Z" fill="white"/>
<path d="M221.675 171.006C221.548 170.896 221.422 170.418 221.422 169.977C221.422 169.352 221.759 169.095 222.771 168.911C223.657 168.764 224.205 168.837 224.458 169.131C224.88 169.719 224.88 170.455 224.501 170.638C223.741 171.006 221.97 171.226 221.675 171.006Z" fill="white"/>
<path d="M207.504 169.866C207.504 169.425 207.883 169.058 208.432 168.948C209.528 168.69 209.486 168.654 209.697 169.609C209.781 170.16 209.57 170.381 208.685 170.455C207.757 170.565 207.504 170.418 207.504 169.866Z" fill="white"/>
<path d="M210.709 169.903C210.119 169.352 210.498 168.323 211.3 168.323C211.848 168.323 212.143 168.58 212.143 169.021C212.143 169.719 211.173 170.307 210.709 169.903Z" fill="white"/>
<path d="M213.24 168.801C212.902 168.102 213.619 167.588 215.011 167.588C215.644 167.588 215.939 167.808 215.939 168.286C215.939 168.69 215.559 169.058 215.011 169.205C213.619 169.499 213.535 169.499 213.24 168.801Z" fill="white"/>
<path d="M225.429 168.69C225.555 168.507 225.766 168.323 225.892 168.323C226.019 168.323 225.977 168.507 225.85 168.69C225.724 168.911 225.513 169.058 225.386 169.058C225.26 169.058 225.302 168.911 225.429 168.69Z" fill="white"/>
<path d="M217.035 168.066C216.698 167.331 217.12 166.963 218.469 166.779C219.229 166.706 219.566 166.853 219.65 167.368C219.946 168.58 217.542 169.242 217.035 168.066Z" fill="white"/>
<path d="M206.913 167.441C206.534 166.228 206.618 166.118 207.715 166.118C208.305 166.118 208.769 166.265 208.769 166.448C208.769 166.632 208.896 167.037 209.022 167.331C209.149 167.698 208.896 167.919 208.179 168.029C207.377 168.176 207.082 168.029 206.913 167.441Z" fill="white"/>
<path d="M221 167.037C221 166.375 221.295 166.081 222.097 165.897C223.278 165.64 223.952 166.155 223.952 167.331C223.952 167.809 223.615 167.956 222.476 167.956C221.169 167.956 221 167.845 221 167.037Z" fill="white"/>
<path d="M205.648 167.037C205.521 166.743 205.606 166.485 205.817 166.485C206.07 166.485 206.238 166.743 206.238 167.037C206.238 167.331 206.154 167.588 206.07 167.588C205.985 167.588 205.817 167.331 205.648 167.037Z" fill="white"/>
<path d="M209.908 167.33C209.317 166.853 209.655 165.824 210.414 165.64C210.878 165.53 211.342 165.566 211.468 165.677C211.974 166.081 211.679 167.147 211.047 167.367C210.245 167.624 210.245 167.624 209.908 167.33Z" fill="white"/>
<path d="M224.965 167.073C224.501 166.007 225.007 165.199 226.188 165.089C227.073 164.978 227.326 165.125 227.326 165.713C227.326 166.926 226.862 167.588 226.019 167.588C225.555 167.588 225.091 167.367 224.965 167.073Z" fill="white"/>
<path d="M212.86 166.595C212.354 166.191 212.523 165.456 213.24 165.235C214.041 164.978 215.728 165.713 215.264 166.118C214.674 166.559 213.155 166.889 212.86 166.595Z" fill="white"/>
<path d="M216.529 165.677C216.15 165.162 217.499 164.28 218.596 164.28C219.102 164.28 219.313 164.501 219.229 164.905C219.06 165.64 216.909 166.228 216.529 165.677Z" fill="white"/>
<path d="M204.973 165.419C204.973 165.236 204.847 164.831 204.72 164.501C204.594 164.17 204.636 163.913 204.889 163.913C205.437 163.913 205.859 165.309 205.353 165.603C205.142 165.714 204.973 165.64 204.973 165.419Z" fill="white"/>
<path d="M206.112 164.574C205.859 163.765 206.365 163.177 207.335 163.177C207.883 163.177 208.432 164.611 208.094 165.088C207.63 165.713 206.323 165.346 206.112 164.574Z" fill="white"/>
<path d="M209.064 164.758C208.432 164.207 208.811 162.884 209.655 162.7C210.287 162.553 210.625 162.737 210.962 163.398C211.215 163.876 211.342 164.354 211.257 164.427C210.836 164.758 209.317 165.015 209.064 164.758Z" fill="white"/>
<path d="M220.452 164.758C219.903 164.28 220.157 163.986 221.422 163.582C222.476 163.288 222.771 163.324 222.982 163.765C223.362 164.647 221.253 165.493 220.452 164.758Z" fill="white"/>
<path d="M224.163 163.913C223.742 163.325 224.332 162.81 225.429 162.81C226.736 162.81 227.116 163.766 225.935 164.06C224.669 164.354 224.458 164.317 224.163 163.913Z" fill="white"/>
<path d="M227.748 163.031C227.748 162.479 228.507 161.891 228.845 162.185C229.14 162.443 228.55 163.545 228.128 163.545C227.917 163.545 227.748 163.325 227.748 163.031Z" fill="white"/>
<path d="M204.425 162.553C204.256 162.443 204.13 161.965 204.172 161.561C204.172 160.862 204.214 160.862 204.594 161.671C205.015 162.553 204.931 162.994 204.425 162.553Z" fill="white"/>
<path d="M205.226 162.001C204.847 160.715 204.889 160.604 205.985 160.604C207.208 160.604 207.968 161.964 207.04 162.479C206.07 162.993 205.521 162.846 205.226 162.001Z" fill="white"/>
<path d="M219.735 162.736C219.735 162.626 219.946 162.038 220.199 161.376C220.789 159.906 222.097 159.833 222.392 161.266C222.518 161.818 222.561 162.295 222.518 162.332C222.307 162.553 219.735 162.883 219.735 162.736Z" fill="white"/>
<path d="M208.221 161.818C208.052 161.708 207.925 161.267 207.925 160.862C207.925 160.274 208.052 160.237 208.558 160.605C208.896 160.862 209.191 161.303 209.191 161.561C209.191 162.112 208.685 162.259 208.221 161.818Z" fill="white"/>
<path d="M223.404 161.083C223.151 159.943 223.699 159.429 225.007 159.576C225.639 159.649 225.85 159.98 225.85 160.789C225.85 161.708 225.682 161.928 224.754 162.002C223.826 162.112 223.615 161.928 223.404 161.083Z" fill="white"/>
<path d="M227.537 161.229C226.989 159.759 227.158 159.318 228.296 159.208C229.309 159.098 229.435 159.208 229.435 160.164C229.435 160.972 229.182 161.303 228.55 161.45C228.086 161.56 227.622 161.45 227.537 161.229Z" fill="white"/>
<path d="M203.792 159.135C203.792 158.436 203.877 158.142 204.003 158.51C204.087 158.841 204.087 159.429 204.003 159.796C203.877 160.127 203.792 159.833 203.792 159.135Z" fill="white"/>
<path d="M204.847 159.612C204.298 159.171 204.551 157.738 205.226 157.518C206.196 157.187 206.66 157.591 206.66 158.804C206.66 159.576 206.449 159.87 205.901 159.87C205.479 159.87 204.973 159.76 204.847 159.612Z" fill="white"/>
<path d="M207.377 158.62C207.208 158.069 207.124 157.481 207.293 157.37C207.715 157.003 207.968 157.591 207.841 158.657L207.715 159.686L207.377 158.62Z" fill="white"/>
<path d="M221 158.363C221 157.958 221.211 157.738 221.422 157.848C221.675 157.958 221.844 158.326 221.844 158.62C221.844 158.914 221.675 159.134 221.422 159.134C221.211 159.134 221 158.804 221 158.363Z" fill="white"/>
<path d="M222.898 158.841C222.307 158.29 222.771 157.297 223.741 157.077C224.965 156.819 225.007 156.819 225.386 157.885C225.639 158.547 225.471 158.694 224.374 158.841C223.699 158.951 223.024 158.914 222.898 158.841Z" fill="white"/>
<path d="M226.778 158.142C226.314 157.775 226.441 156.562 226.905 156.562C227.158 156.562 227.326 156.415 227.326 156.194C227.326 156.011 227.073 155.827 226.736 155.827C226.019 155.827 225.429 154.026 226.019 153.511C226.778 152.85 227.622 153.548 228.128 155.349C228.423 156.305 228.718 157.407 228.845 157.775C229.013 158.253 228.845 158.4 228.043 158.4C227.495 158.4 226.905 158.289 226.778 158.142Z" fill="white"/>
<path d="M229.056 156.194C228.76 155.092 228.001 152.887 227.453 151.27C226.609 148.917 226.525 148.329 226.989 148.072C227.284 147.888 227.664 147.741 227.79 147.741C228.254 147.741 229.941 155.276 229.773 156.746L229.646 158.216L229.056 156.194Z" fill="white"/>
<path d="M203.37 156.01C203.37 155.422 203.455 155.202 203.581 155.569C203.666 155.9 203.666 156.415 203.581 156.672C203.455 156.892 203.37 156.635 203.37 156.01Z" fill="white"/>
<path d="M204.214 155.937C204.383 154.651 205.606 154.357 205.943 155.533C206.238 156.488 206.323 156.378 205.057 156.746C204.172 156.966 204.087 156.893 204.214 155.937Z" fill="white"/>
<path d="M222.012 155.606C221.675 154.541 222.392 153.916 223.741 154.063C224.754 154.173 225.133 155.753 224.29 156.231C223.235 156.819 222.265 156.562 222.012 155.606Z" fill="white"/>
<path d="M206.66 155.312C206.66 154.687 206.871 154.356 207.335 154.356C207.757 154.356 207.925 154.614 207.841 155.165C207.63 156.341 206.66 156.451 206.66 155.312Z" fill="white"/>
<path d="M202.907 153.768C202.907 153.364 203.033 153.254 203.16 153.548C203.286 153.805 203.244 154.136 203.117 154.246C202.991 154.393 202.864 154.173 202.907 153.768Z" fill="white"/>
<path d="M203.708 153.659C203.708 153.107 203.961 152.887 204.594 152.887C205.184 152.887 205.395 153.07 205.311 153.512C205.1 154.467 203.708 154.577 203.708 153.659Z" fill="white"/>
<path d="M206.028 153.328C205.732 152.666 205.732 152.666 206.998 152.372C207.757 152.152 207.925 152.262 207.925 152.813C207.925 153.695 206.407 154.136 206.028 153.328Z" fill="white"/>
<path d="M221.295 152.813C221 151.894 221.548 151.417 223.025 151.417C223.742 151.417 223.952 151.637 223.952 152.335C223.952 152.887 223.699 153.254 223.362 153.254C223.025 153.254 222.476 153.364 222.139 153.475C221.759 153.585 221.464 153.364 221.295 152.813Z" fill="white"/>
<path d="M224.965 151.968C224.627 151.232 225.133 150.681 226.103 150.681C226.694 150.681 226.905 150.938 226.905 151.6C226.905 152.262 226.694 152.519 226.061 152.519C225.597 152.519 225.091 152.262 224.965 151.968Z" fill="white"/>
<path d="M203.286 151.453C203.286 150.681 204.256 149.799 204.678 150.204C204.847 150.314 204.973 150.828 204.973 151.306C204.973 151.894 204.72 152.152 204.13 152.152C203.581 152.152 203.286 151.894 203.286 151.453Z" fill="white"/>
<path d="M205.606 151.012C205.268 150.093 205.648 149.689 207.082 149.505C208.389 149.358 208.811 150.571 207.672 151.306C206.576 152.005 205.901 151.894 205.606 151.012Z" fill="white"/>
<path d="M220.873 150.792C220.578 150.571 220.452 149.211 220.705 149.211C220.747 149.211 221.38 149.064 222.139 148.88C223.404 148.55 223.488 148.586 223.446 149.579C223.404 150.314 223.151 150.681 222.518 150.828C221.38 151.086 221.211 151.086 220.873 150.792Z" fill="white"/>
<path d="M219.313 149.946C219.313 149.689 219.44 149.579 219.608 149.689C219.735 149.836 219.735 150.057 219.608 150.204C219.44 150.314 219.313 150.204 219.313 149.946Z" fill="white"/>
<path d="M224.037 149.358C224.163 148.734 225.471 147.815 225.766 148.109C225.892 148.219 226.103 148.66 226.23 149.138C226.525 149.873 226.399 149.946 225.218 149.946C224.205 149.946 223.91 149.799 224.037 149.358Z" fill="white"/>
<path d="M203.708 149.322C203.708 149.138 203.919 148.77 204.13 148.476C204.467 148.035 204.551 148.072 204.551 148.77C204.551 149.211 204.383 149.579 204.13 149.579C203.919 149.579 203.708 149.469 203.708 149.322Z" fill="white"/>
<path d="M204.973 148.513C204.973 147.484 205.859 147.153 206.534 147.925C206.955 148.476 206.955 148.66 206.534 148.917C205.648 149.395 204.973 149.248 204.973 148.513Z" fill="white"/>
<path d="M217.795 148.035C217.036 147.3 217.036 147.263 217.752 147.484C218.174 147.631 218.723 147.741 218.933 147.741C219.144 147.741 219.313 147.998 219.313 148.292C219.313 149.064 218.723 148.991 217.795 148.035Z" fill="white"/>
<path d="M208.727 147.999C206.913 146.786 206.66 144.066 208.347 144.066C209.486 144.066 210.54 145.61 210.372 147.043C210.245 148.366 209.739 148.66 208.727 147.999Z" fill="white"/>
<path d="M220.283 148.219C220.452 148.109 220.705 148.109 220.874 148.219C221 148.366 220.874 148.476 220.578 148.476C220.283 148.476 220.157 148.366 220.283 148.219Z" fill="white"/>
<path d="M226.652 146.785C226.778 146.455 226.905 146.124 226.905 146.05C226.905 145.977 227.116 145.903 227.326 145.903C227.579 145.903 227.748 146.234 227.748 146.638C227.748 147.079 227.453 147.373 227.073 147.373C226.609 147.373 226.483 147.19 226.652 146.785Z" fill="white"/>
<path d="M204.551 146.675C204.551 145.83 205.437 144.433 205.943 144.433C206.829 144.433 206.196 146.785 205.268 146.932C204.889 147.006 204.551 146.896 204.551 146.675Z" fill="white"/>
<path d="M214.041 146.271L212.776 146.013L213.914 145.756C215.095 145.462 215.939 145.683 215.939 146.307C215.939 146.675 215.897 146.675 214.041 146.271Z" fill="white"/>
<path d="M212.565 144.507C212.565 143 213.535 142.779 214.421 144.102C215.011 144.985 215.053 145.168 214.505 145.168C214.168 145.168 213.619 145.279 213.24 145.389C212.734 145.573 212.565 145.352 212.565 144.507Z" fill="white"/>
<path d="M219.903 145.021C218.006 144.286 216.782 142.338 216.782 140.023C216.782 138.369 216.951 137.965 218.09 137.046C218.807 136.458 219.524 135.98 219.735 135.98C220.663 135.98 224.079 138.81 225.218 140.574L226.525 142.596L225.133 143.882C223.531 145.352 221.759 145.756 219.903 145.021Z" fill="white"/>
<path d="M211.089 144.066C210.962 143.882 211.047 143.698 211.257 143.698C211.51 143.698 211.721 143.882 211.721 144.066C211.721 144.286 211.637 144.433 211.553 144.433C211.426 144.433 211.215 144.286 211.089 144.066Z" fill="white"/>
<path d="M205.564 143.478C205.69 143.147 205.817 142.816 205.817 142.743C205.817 142.669 206.196 142.596 206.66 142.596C207.715 142.596 207.757 143.184 206.702 143.698C205.564 144.213 205.268 144.176 205.564 143.478Z" fill="white"/>
<path d="M208.896 143.037C207.925 142.927 207.63 142.449 208.263 142.118C208.432 142.008 209.191 141.824 209.95 141.677C211.089 141.456 211.3 141.53 211.3 142.155C211.3 142.927 210.414 143.257 208.896 143.037Z" fill="white"/>
<path d="M212.143 141.787C212.143 141.346 212.185 141.089 212.27 141.162C212.312 141.236 212.649 141.603 212.944 141.971C213.451 142.485 213.408 142.596 212.818 142.596C212.396 142.596 212.143 142.302 212.143 141.787Z" fill="white"/>
<path d="M206.238 141.53C206.238 141.309 206.449 141.052 206.66 140.942C206.913 140.832 207.082 140.979 207.082 141.273C207.082 141.603 206.913 141.861 206.66 141.861C206.449 141.861 206.238 141.714 206.238 141.53Z" fill="white"/>
<path d="M207.799 140.978C207.462 140.243 210.456 139.435 210.962 140.133C211.342 140.721 210.962 140.978 209.359 141.272C208.389 141.456 207.968 141.383 207.799 140.978Z" fill="white"/>
<path d="M211.763 139.802C211.763 139.398 211.89 139.288 212.017 139.582C212.143 139.839 212.101 140.17 211.974 140.28C211.848 140.427 211.721 140.206 211.763 139.802Z" fill="white"/>
<path d="M208.179 139.214C208.685 138.406 210.161 137.083 210.54 137.083C210.962 137.083 211.004 138.81 210.583 139.03C210.372 139.104 209.697 139.288 209.064 139.435C208.136 139.619 207.925 139.582 208.179 139.214Z" fill="white"/>
<path d="M211.553 138.369C211.089 137.266 211.3 136.789 212.312 136.641C213.366 136.458 213.366 136.458 212.691 137.597C211.848 139.067 211.89 139.067 211.553 138.369Z" fill="white"/>
<path d="M211.3 136.164C211.3 136.09 212.143 135.576 213.197 135.061C214.463 134.4 215.348 134.179 215.981 134.326C216.74 134.547 216.529 134.694 214.674 135.466C212.607 136.274 211.3 136.568 211.3 136.164Z" fill="white"/>
<path d="M234.707 103.6C233.569 102.167 231.164 99.8516 229.435 98.4549C227.706 97.0583 226.567 95.9189 226.905 95.9189C227.833 95.9189 234.918 97.6096 236.69 98.2712C238.166 98.8225 238.208 98.896 237.828 100.035C237.617 100.697 237.449 102.351 237.449 103.711C237.449 105.107 237.322 106.21 237.153 106.21C236.943 106.21 235.888 105.034 234.707 103.6Z" fill="white"/>
<path d="M148.879 214.926C147.15 214.155 146.77 213.713 144.577 209.928C141.414 204.562 141.33 203.312 144.324 206.363C145.505 207.576 148.246 210.075 150.397 211.913C154.067 215 154.235 215.22 153.012 215.073C152.127 214.963 151.789 215.037 152 215.331C152.506 215.992 150.904 215.808 148.879 214.926Z" fill="white"/>
<path fill-rule="evenodd" clip-rule="evenodd" d="M219.561 281.888C219.211 281.163 219.601 280.329 220.433 280.024L221.341 279.688C230.176 276.394 235.247 274.415 238.693 271.273C242.138 268.131 242.55 263.515 243.198 260.707C243.375 259.936 245.378 261.29 246.262 261.445C247.147 261.6 247.72 262.35 247.542 263.121C246.764 266.497 244.668 269.716 241.294 272.772C237.931 275.817 231.42 279.081 221.7 282.647C220.869 282.952 219.911 282.612 219.561 281.888Z" fill="#7C7C7C"/>
<path fill-rule="evenodd" clip-rule="evenodd" d="M259.513 135.242C260.288 134.839 261.29 135.061 261.752 135.737C266.372 142.5 268.847 150.231 268.847 158.275C268.847 182.643 246.177 202.398 218.213 202.398C210.783 202.398 203.576 201.001 196.976 198.34C196.157 198.01 193.065 195.382 196.179 196.451C199.294 197.52 211.346 199.919 218.3 199.919C244.46 199.919 262.967 181.071 262.967 158.275C262.967 150.747 259.513 144.066 258.945 137.193C258.879 136.396 258.738 135.644 259.513 135.242Z" fill="#7C7C7C"/>
<path fill-rule="evenodd" clip-rule="evenodd" d="M97.7511 242.966C98.3284 242.362 99.3583 241.142 100.051 241.645C102.895 243.709 105.929 246.1 109.175 246.561C112.552 247.042 116.559 247.042 121.19 246.553C122.086 246.459 122.899 247.015 123.008 247.795C123.116 248.575 122.478 249.285 121.583 249.379C116.665 249.898 112.355 249.898 108.649 249.371C104.81 248.825 101.241 247.351 97.9607 244.971C97.2676 244.468 97.1737 243.57 97.7511 242.966Z" fill="#7C7C7C"/>
<path d="M132.43 193.168C130.322 191.698 125.809 187.361 122.393 183.539C120.621 181.517 118.639 177.401 117.458 173.248C116.91 171.373 116.361 169.683 116.235 169.462C116.066 169.278 115.391 166.669 114.716 163.655C113.704 159.392 113.918 158.018 113.029 152.919C112.653 150.76 112.312 149.041 112.312 149.041L113.409 147.815C114.042 147.079 114.842 145.863 115.138 145.168C116.488 142.004 126.399 132.084 126.694 132.341C126.779 132.415 126.441 134.142 125.851 136.164C125.303 138.185 124.628 141.236 124.333 142.963C123.911 145.83 123.742 146.161 122.435 147.116C120.79 148.329 117.669 152.225 117.669 153.033C117.669 154.136 119.567 153.401 121.549 151.6L123.573 149.762V151.784C123.573 153.107 123.278 154.32 122.73 155.275C121.676 157.076 121.676 158.988 122.688 160.458C123.194 161.193 123.658 162.957 123.953 165.052C125.26 174.534 128.044 182.767 132.81 191.036C133.991 193.095 134.919 194.785 134.877 194.785C134.792 194.785 133.696 194.05 132.43 193.168Z" fill="white"/>
<path fill-rule="evenodd" clip-rule="evenodd" d="M307.925 215.845L310.961 217.021C311.591 217.275 318.538 220.183 326.882 223.677C340.334 229.31 357.42 236.464 357.524 236.464C357.692 236.464 358.484 234.869 358.663 233.009C359.084 229.003 360.645 223.563 362.458 219.778C363.302 218.087 363.977 215.974 363.977 215.79C363.977 215.706 363.291 215.465 362.169 215.071C360.832 214.601 358.877 213.914 356.722 213.015C346.094 208.568 325.301 199.49 322.729 198.13C320.198 196.844 319.692 196.733 319.692 197.579C319.692 198.681 317.119 203.79 315.137 206.547C314.083 208.053 312.016 210.773 310.54 212.574L307.925 215.845ZM356.807 229.848C358.016 230.459 355.921 231.355 355.415 231.502C352.435 231.723 348.927 231.234 346.052 229.775C344.549 228.846 332.714 223.116 324.864 219.316C321.275 217.578 318.518 216.244 317.963 215.955C316.191 215.037 314.504 214.044 314.209 213.75C313.323 212.758 314.167 212.317 316.655 212.501C318.151 212.611 354.195 228.529 356.807 229.848Z" fill="white"/>
<path d="M277.642 219.153C276.546 218.822 275.365 218.087 274.606 217.242L273.34 215.882L277.811 212.023C284.686 206.142 289.747 199.715 294.302 192.548C295.82 190.159 300.333 180.525 300.881 179.459C301.725 177.915 302.358 177.327 304.171 176.445C306.322 175.343 308.768 174.975 309.823 175.6C311.847 176.776 311.847 180.488 309.823 186.883C307.587 193.903 304.593 198.938 298.393 206.179C297.423 207.281 295.609 209.45 294.302 210.957C290.801 215 288.524 216.948 285.445 218.454C282.408 219.925 280.637 220.108 277.642 219.153Z" fill="white"/>
<path d="M293.543 218.307L292.657 217.536C292.657 217.536 307.357 201.26 309.991 195.263C312.002 190.686 313.185 189.389 314.781 189.389C315.673 189.389 316.402 189.566 316.74 190.007C317.33 190.779 317.899 191.735 317.14 195.006C315.875 200.298 313.935 203.79 308.114 211.324C306.765 213.052 305.035 214.963 304.276 215.624C302.505 217.058 298.52 218.528 296.2 218.859C294.724 219.042 294.302 218.969 293.543 218.307Z" fill="white"/>
<path fill-rule="evenodd" clip-rule="evenodd" d="M318.235 201.289C319.086 199.593 319.692 198.114 319.692 197.579C319.692 196.733 320.198 196.844 322.729 198.13C325.301 199.49 346.094 208.568 356.722 213.015C360.687 214.669 363.977 215.607 363.977 215.79C363.977 215.974 317.333 203.087 318.235 201.289Z" fill="#E7EAEE"/>
<path fill-rule="evenodd" clip-rule="evenodd" d="M173.932 203.386C168.575 200.335 160.477 193.168 156.555 188.059C150.946 180.709 147.234 172.844 145.421 164.39C144.113 158.252 144.155 148.807 145.463 143.331C146.812 137.744 148.542 133.481 151.621 128.078C155.205 121.83 159.001 117.236 164.695 112.274C170.279 107.408 145.463 127.53 151.621 163.531C156.555 193.7 177.762 205.585 173.932 203.386Z" fill="#E7EAEE"/>
</svg>
