<svg width="656" height="651" viewBox="0 0 656 651" fill="none" xmlns="http://www.w3.org/2000/svg">
<path fill-rule="evenodd" clip-rule="evenodd" d="M259.742 514.112L261.097 515.086C258.039 517.809 253.439 514.423 250.859 511.249C246.712 506.146 242.503 500.722 241.241 494.287C240.522 490.625 240.81 486.851 241.1 483.132L242.27 468.135C242.788 461.489 243.308 454.831 244.468 448.266C247.605 430.496 255.503 413.577 267.132 399.711L267.249 399.572C269.302 397.125 271.545 394.452 271.505 391.279C271.422 384.565 275.317 378.292 280.433 373.897C285.548 369.503 291.811 366.682 297.979 363.922C300.773 362.671 304.421 361.551 306.586 363.703C311.04 368.131 318.473 365.311 324.356 363.062C331.579 360.301 339.294 358.813 347.033 358.689C347.259 358.686 347.486 358.682 347.714 358.679C352.361 358.613 357.591 358.539 360.426 354.967C362.231 352.692 365.682 352.824 368.579 353.168L388.503 355.533C390.026 355.713 391.85 356.126 392.33 357.571C393.618 361.446 398.158 363.027 402.094 364.205C416.088 368.392 429.767 374.078 441.648 382.527C453.528 390.976 463.57 402.342 468.898 415.849C460.235 404.098 451.348 392.126 439.325 383.782C435.884 381.394 432.225 379.332 428.511 377.389C419.744 372.803 410.62 368.849 401.141 365.978C357.14 352.65 306.242 365.012 273.416 396.998C268.656 401.636 264.193 406.744 261.494 412.797L265.06 413.895C259.408 416.402 255.211 421.894 254.302 427.971C256.576 424.105 259.818 420.805 263.654 418.449C262.556 422.089 259.701 425.013 256.901 427.88C253.334 431.534 249.858 435.094 250.227 439.922C251.92 435.511 256.187 432.181 260.906 431.587C253.421 438.845 245.389 447.364 245.627 457.746C248.358 451.751 252.994 446.627 258.708 443.29L250.482 454.26C247.371 458.409 244.095 463.149 244.806 468.272C247.512 463.452 251.382 459.281 255.998 456.206C253.775 461.223 250.601 465.824 246.692 469.695C250.41 469.249 253.989 467.721 256.872 465.349C255.663 467.023 254.574 468.912 254.534 470.971C254.493 473.03 255.837 475.24 257.891 475.536C258.513 474.156 260.463 473.574 261.748 474.383C257.851 478.146 257.811 485.119 261.664 488.926C262.007 487.137 263.528 485.629 265.331 485.29C262.457 490.278 261.94 496.541 263.958 501.926C264.569 498.875 266.275 496.052 268.699 494.079C267.302 501.317 264.212 508.227 259.742 514.112ZM258.04 511.807C260.473 511.782 261.987 509.08 262.241 506.678C262.544 503.805 261.825 500.933 261.111 498.132L256.878 481.516C256.081 481.766 255.989 482.627 255.892 483.527C255.809 484.296 255.723 485.095 255.193 485.569C254.122 484.247 254 482.245 254.904 480.804C255.816 479.35 255.219 477.313 253.925 476.179C252.631 475.046 250.83 474.661 249.105 474.604C248.173 474.574 247.181 474.645 246.418 475.178C245.655 475.71 245.253 476.843 245.795 477.597C247.409 479.84 248.622 482.366 249.364 485.022C249.419 485.22 249.473 485.421 249.527 485.623C249.895 487.002 250.274 488.42 251.291 489.403C252.077 490.163 252.277 491.323 252.437 492.4L253.73 501.131C253.965 502.72 254.201 504.341 253.931 505.925C253.662 507.509 252.799 509.079 251.352 509.798L255.974 511.358C256.645 511.585 257.332 511.814 258.04 511.807ZM308.424 368.701C307.514 368.892 306.75 368.098 306.098 367.42L306.023 367.342C305.354 366.649 304.205 366.044 303.501 366.702C295.297 374.361 285.961 380.825 275.884 385.821C274.056 386.727 273.81 389.172 273.809 391.201C273.808 391.879 274.462 392.83 274.888 392.3C276.966 389.717 279.668 387.711 282.338 385.736C289.852 380.176 297.456 374.565 306.07 370.9C307.115 370.455 308.339 369.826 308.424 368.701ZM390.882 360.087C390.417 359.004 389.095 358.613 387.93 358.396C384.754 357.802 381.522 357.533 378.293 357.264C373.859 356.895 369.43 356.526 365.163 355.318C363.796 354.931 362.627 356.306 361.877 357.505C364.126 357.272 366.389 357.176 368.65 357.218C372.585 357.289 376.498 357.776 380.403 358.261C382.387 358.508 384.386 358.758 386.288 359.369C386.51 359.44 386.733 359.516 386.958 359.593L386.958 359.593C388.257 360.035 389.6 360.493 390.882 360.087ZM348.879 376.729C349.778 376.933 350.635 377.6 350.769 378.505C350.903 379.409 350.281 380.289 349.487 380.749C348.692 381.209 347.752 381.338 346.84 381.458L344.095 381.819C343.819 381.855 343.536 381.894 343.297 382.034C342.607 382.44 342.654 383.539 343.219 384.104C343.783 384.67 344.648 384.811 345.45 384.809C349.186 384.802 352.721 382.135 353.862 378.605C354.133 377.767 354.276 376.835 353.941 376.02C353.771 375.607 353.486 375.249 353.17 374.931C351.701 373.453 349.513 372.802 347.426 372.949C345.34 373.095 343.356 373.977 341.658 375.189C340.845 375.77 340.069 376.45 339.607 377.333C339.145 378.216 339.045 379.336 339.563 380.188C339.76 380.513 340.065 380.801 340.442 380.862C340.819 380.923 341.255 380.682 341.302 380.305C341.432 379.259 342.202 378.374 343.119 377.842C344.037 377.31 345.095 377.076 346.137 376.869C347.041 376.69 347.98 376.525 348.879 376.729ZM275.272 428.504C276.299 422.48 281.202 417.582 286.918 415.313C290.068 414.062 293.672 413.514 296.84 414.719C297.622 415.016 298.378 415.427 298.942 416.041C299.471 416.619 299.804 417.347 300.055 418.087C301.665 422.824 300.031 428.302 296.574 431.938C293.116 435.574 288.082 437.481 283.058 437.838C281.448 437.953 279.719 437.888 278.39 436.98C277.06 436.073 276.401 434.055 277.424 432.817C277.908 432.84 278.169 433.269 278.436 433.708C278.568 433.925 278.702 434.145 278.865 434.319C279.423 434.915 280.346 434.959 281.165 434.924C284.728 434.775 288.345 433.899 291.245 431.84C294.144 429.781 296.228 426.417 296.167 422.879C296.148 421.738 295.898 420.572 295.247 419.633C294.178 418.09 292.159 417.394 290.277 417.517C288.395 417.641 286.63 418.469 285.028 419.456C282.92 420.755 280.971 422.387 279.649 424.471C278.327 426.556 277.681 429.132 278.24 431.532C277.746 432.416 276.278 432.24 275.671 431.427C275.064 430.615 275.102 429.501 275.272 428.504ZM308.084 478.154C305.477 479.819 303.316 482.424 302.914 485.474C302.589 487.941 303.422 490.399 304.243 492.75C304.884 494.585 305.547 496.46 306.767 497.978C308.972 500.719 312.624 501.854 316.114 502.411C317.064 502.563 318.506 502.137 318.167 501.243C314.482 501.175 310.858 499.481 308.46 496.704C306.062 493.927 304.93 490.113 305.427 486.489C305.532 485.727 305.707 484.968 306.03 484.268C306.682 482.853 307.899 481.765 309.217 480.92C312.052 479.101 315.504 478.249 318.868 478.538C322.111 478.816 325.351 480.226 327.331 482.79C329.31 485.355 329.782 489.137 328.035 491.863C327.751 492.306 327.544 493.09 328.065 493.182C330.877 491.679 332.438 488.363 332.28 485.197C332.123 482.03 330.438 479.067 328.123 476.882C326.843 475.674 325.326 474.653 323.608 474.242C321.344 473.701 318.974 474.259 316.722 474.847C313.724 475.63 310.69 476.49 308.084 478.154ZM436.099 482.087C426.673 478.595 416.431 477.293 406.422 478.315C402.226 478.744 398.016 479.594 394.243 481.468C387.124 485.004 382.034 492.282 381.187 500.137C380.341 507.992 383.764 516.174 389.968 521.124C392.32 523.001 394.991 524.407 397.664 525.814C399.49 526.775 401.317 527.737 403.046 528.85C403.539 529.318 402.428 529.786 401.778 529.578C395.733 527.641 389.862 524.695 385.549 520.066C380.303 514.434 377.744 506.436 378.756 498.833C379.768 491.229 384.331 484.165 390.871 480.078C396.044 476.845 402.228 475.483 408.337 475.264C414.447 475.046 420.538 475.912 426.579 476.841C430.352 477.421 434.776 478.533 436.099 482.087ZM336.92 493.808C336.492 492.834 334.771 492.581 334.457 493.596C332.457 500.053 326.108 504.935 319.308 505.245C317.771 505.314 316.233 505.173 314.702 505.026C311.403 504.709 308.001 504.335 305.113 502.723C300.959 500.406 298.46 495.647 298.431 490.918C298.401 486.19 300.661 481.594 304.093 478.313C303.617 476.989 301.572 477.629 300.556 478.609C294.927 484.038 293.962 493.409 297.911 500.141C301.861 506.873 310.137 510.646 317.939 509.79C325.741 508.935 332.786 503.75 336.413 496.842C336.907 495.9 337.348 494.781 336.92 493.808ZM288.063 526.505C286.792 531.342 286.671 536.472 287.713 541.363C288.181 543.556 288.232 544.765 288.241 544.991C288.242 545.017 288.243 545.03 288.243 545.03C288.244 545.03 288.245 545.017 288.246 544.991C288.256 544.764 288.311 543.551 288.789 541.355C289.855 536.455 289.602 531.279 288.063 526.505ZM294.815 529.43C293.009 533.186 293.233 537.834 295.391 541.402C295.876 542.203 296.244 542.855 296.515 543.336C296.881 543.982 297.071 544.32 297.137 544.297C297.209 544.272 297.132 543.819 296.972 542.871C296.908 542.491 296.83 542.031 296.743 541.487L294.815 529.43ZM299.899 534.227C299.133 536.625 299.696 539.397 301.34 541.313C303.018 543.269 303.566 543.896 303.055 541.378C302.533 538.807 301.449 536.351 299.899 534.227ZM447.024 506.95C444.719 516.134 437.355 523.093 430.215 529.368C430.542 530.066 431.596 529.816 432.272 529.439C439.504 525.399 445.356 518.816 448.026 511.018C450.696 503.221 450.032 494.262 445.817 487.168C445.464 486.572 445.013 485.938 444.329 485.805C443.646 485.673 442.858 486.459 443.26 487.024C447.311 492.718 448.722 500.187 447.024 506.95ZM343.049 424.025C343.032 422.573 343.052 421 343.936 419.842C345.154 418.247 347.463 418.08 349.479 418.052C350.378 418.039 351.289 418.028 352.164 418.235C354.028 418.674 355.512 420.039 356.835 421.415C357.128 421.719 357.44 422.094 357.368 422.509C357.278 423.024 356.628 423.26 356.113 423.155C355.77 423.085 355.463 422.916 355.154 422.746C354.999 422.661 354.844 422.576 354.683 422.503C352.83 421.659 350.652 422.584 348.987 423.753C348.726 423.936 348.443 424.172 348.437 424.49C348.43 424.81 348.706 425.057 348.966 425.246C351.216 426.881 354.096 427.638 356.866 427.323C357.528 427.247 358.306 427.007 358.478 426.367C358.545 426.117 358.519 425.823 358.494 425.539C358.452 425.065 358.412 424.618 358.815 424.453C359.024 424.367 359.262 424.429 359.479 424.492C360.979 424.924 362.732 425.62 363.022 427.143C363.106 427.583 363.047 428.041 362.906 428.467C362.493 429.711 361.342 430.683 360.038 430.889C359.459 430.98 358.867 430.931 358.283 430.881C356.757 430.751 355.23 430.621 353.718 430.379C350.941 429.935 348.226 429.114 345.672 427.946C344.785 427.541 343.864 427.042 343.415 426.182C343.074 425.529 343.058 424.762 343.049 424.025ZM400.076 388.199C399.184 385.805 397.028 383.916 394.523 383.334C393.749 383.154 392.874 383.11 392.217 383.556C391.56 384.001 391.334 385.087 391.96 385.574C392.568 386.046 392.201 387.157 391.458 387.367C390.716 387.577 389.918 387.077 389.547 386.405C389.176 385.734 389.137 384.936 389.133 384.17C389.127 383.148 389.221 382.008 389.981 381.319C390.271 381.056 390.633 380.887 390.991 380.728C392.473 380.071 394.111 379.513 395.696 379.866C397.205 380.203 398.408 381.309 399.46 382.434C400.323 383.356 401.139 384.322 401.905 385.325C402.579 386.21 403.228 387.153 403.481 388.234C403.734 389.314 403.516 390.568 402.675 391.298C401.852 392.013 400.585 392.074 399.586 391.633C398.703 391.242 397.949 390.384 398.015 389.427C398.081 388.47 399.265 387.677 400.076 388.199ZM408.04 455.494C410.254 455.431 412.316 453.739 412.794 451.594C413.085 450.289 412.726 448.737 411.58 448.035C410.743 447.523 409.691 447.56 408.709 447.622C407.35 447.709 405.939 447.827 404.758 448.5C403.577 449.174 402.699 450.569 403.069 451.87C403.671 453.985 405.827 455.557 408.04 455.494ZM408.324 452.324C407.896 452.439 407.286 452.329 407.248 451.891C407.231 451.709 407.33 451.537 407.443 451.392C408.072 450.584 409.27 450.27 410.22 450.665C409.89 451.467 409.167 452.099 408.324 452.324ZM409.468 419.821C409.107 418.995 409.806 418.033 410.654 417.717C411.334 417.464 412.072 417.49 412.805 417.516C412.987 417.523 413.169 417.529 413.349 417.532C414.256 417.543 415.258 417.393 415.846 416.708C416.053 416.467 416.194 416.111 416.036 415.836C415.871 415.547 415.481 415.498 415.147 415.48C412.836 415.362 410.108 415.432 408.775 417.31C408.489 417.713 407.788 417.577 407.52 417.161C407.253 416.745 407.314 416.199 407.467 415.729C408.012 414.047 409.579 412.823 411.29 412.332C413.001 411.841 414.838 411.996 416.575 412.386C417.161 412.518 417.769 412.691 418.196 413.11C418.536 413.442 418.726 413.896 418.849 414.352C419.441 416.535 418.568 419.036 416.741 420.387C414.915 421.738 412.251 421.854 410.312 420.668C409.966 420.456 409.629 420.191 409.468 419.821ZM401.547 458.394C402.62 459.67 403.891 460.831 405.433 461.48C408.549 462.793 412.533 461.58 414.371 458.759C415.04 457.732 415.34 456.164 414.35 455.435C412.764 458.742 408.165 460.202 404.94 458.423C404.322 458.082 403.76 457.646 403.249 457.161C400.929 454.957 399.719 451.358 401.08 448.471C401.524 447.53 402.205 446.717 402.95 445.987C404.575 444.395 406.9 443.092 409.07 443.8C409.16 443.829 409.249 443.862 409.339 443.895C409.643 444.006 409.948 444.117 410.267 444.099C410.681 444.075 411.114 443.707 411.007 443.31C410.976 443.192 410.902 443.09 410.826 442.994C409.486 441.299 406.854 440.776 404.959 441.827C402.702 443.077 400.41 444.55 399.21 446.822C397.257 450.519 398.851 455.189 401.547 458.394ZM437.481 401.366C437.382 401.507 437.407 401.704 437.431 401.892C437.459 402.115 437.485 402.326 437.301 402.416C436.626 402.747 435.817 402.713 435.098 402.494C433.133 401.895 431.815 400.106 430.704 398.39C430.053 397.387 429.406 396.321 429.301 395.133C429.196 393.945 429.808 392.607 430.962 392.271C432.248 391.896 433.509 392.845 434.51 393.73C435.639 394.727 436.793 395.756 437.491 397.086C438.19 398.416 438.346 400.135 437.481 401.366ZM433.209 396.914C433.486 397.182 433.638 397.541 433.79 397.9C433.939 398.254 434.089 398.608 434.358 398.875C434.7 399.213 435.218 399.364 435.69 399.263C434.806 397.906 433.783 396.64 432.64 395.489C432.334 395.58 432.309 396.03 432.493 396.289C432.604 396.446 432.76 396.561 432.917 396.677C433.018 396.752 433.119 396.827 433.209 396.914ZM265.002 519.505C264.893 521.285 265.03 523.349 266.466 524.422C266.945 524.157 266.912 523.478 266.852 522.937C266.481 519.608 267.522 516.4 268.569 513.171C269.319 510.86 270.073 508.537 270.314 506.152C270.384 505.46 270.198 504.513 269.498 504.486C268.973 504.466 268.635 505.015 268.423 505.492C266.462 509.914 265.297 514.682 265.002 519.505ZM404.308 455.283C405.928 455.995 407.724 456.72 409.42 456.209C410.094 456.006 410.695 455.619 411.285 455.237C411.282 456.221 410.43 457.047 409.481 457.328C408.531 457.609 407.509 457.458 406.541 457.25C405.465 457.019 404.149 456.364 404.308 455.283ZM276.135 537.367C276.549 536.636 276.619 535.769 276.68 534.933L277.17 528.276C277.41 525.008 277.65 521.729 277.435 518.46C277.407 518.047 277.365 517.613 277.123 517.277C276.881 516.941 276.368 516.762 276.036 517.011C275.792 517.195 275.73 517.527 275.688 517.828C275.157 521.608 274.874 525.422 274.839 529.239C274.814 532.006 274.942 534.865 276.135 537.367ZM268.803 531.645C268.373 532.005 267.658 531.688 267.421 531.182C267.184 530.675 267.279 530.084 267.381 529.535C268.443 523.79 269.647 518.07 270.993 512.383C271.026 512.24 271.063 512.093 271.155 511.979C271.51 511.545 272.225 511.982 272.477 512.482C273.094 513.709 272.798 515.173 272.49 516.509L269.173 530.862C269.107 531.148 269.029 531.455 268.803 531.645ZM280.288 531.9C280.103 534.055 280.429 536.217 280.754 538.356C280.869 539.118 281.422 540.13 282.115 539.783L283.466 525.445C283.521 524.862 283.559 524.214 283.194 523.754C282.829 523.293 281.907 523.312 281.79 523.886L280.794 528.803C280.586 529.829 280.378 530.857 280.288 531.9ZM419.812 487.955C415.965 485.99 411.284 485.215 407.288 486.861C404.303 488.091 395.868 493.403 394.745 500.212C393.994 504.77 394.001 509.427 395.609 513.828L395.868 514.518C396.346 515.765 397.872 517.197 398.724 516.166C396.234 511.699 395.769 506.168 397.478 501.353C399.188 496.538 403.043 492.518 407.805 490.585C408.807 490.179 409.853 489.859 410.931 489.758C413.11 489.553 415.285 490.254 417.234 491.244C421.428 493.377 426.625 496.924 428.622 501.161C430.547 505.245 431.964 510.116 430.222 514.281C428.48 518.446 417.038 521.459 417.038 521.459L418.304 523.752C418.304 523.752 424.709 522.498 428.622 519.67C445.045 507.8 423.492 489.835 419.812 487.955Z" fill="white"/>
<path fill-rule="evenodd" clip-rule="evenodd" d="M129.495 429.345C123.687 429.963 117.535 428.629 113 424.975C109.788 422.388 107.531 418.787 105.947 414.994C104.228 410.876 103.24 406.459 103.041 402.006C102.966 400.329 103.006 398.622 103.503 397.017C104.32 394.377 106.287 392.258 108.296 390.347C112.569 386.28 117.592 382.568 123.45 381.713C127.442 381.131 131.503 381.925 135.41 382.923C138.479 383.707 141.543 384.63 144.304 386.175C150.403 389.587 154.63 396.097 155.241 403.019C155.852 409.941 155.1 414.527 145.687 423.127C140.796 426.296 135.303 428.726 129.495 429.345ZM139.738 407.616C138.796 407.91 137.857 408.432 136.884 408.262C134.898 407.915 134.542 405.21 134.983 403.257C136.246 397.665 140.174 392.726 145.362 390.208C144.187 388.094 141.068 387.939 138.862 388.955C136.655 389.971 134.93 391.801 132.797 392.96C131.735 393.537 130.477 393.945 129.322 393.586C127.421 392.995 126.695 390.525 127.318 388.647C127.94 386.769 129.493 385.368 130.984 384.058C125.581 384.246 120.234 385.855 115.636 388.678C112.036 390.887 108.622 394.51 109.099 398.684C112.076 396.306 115.57 394.571 119.272 393.633C120.057 393.433 121.042 393.333 121.534 393.973C121.906 394.457 121.799 395.154 121.56 395.715C120.377 398.5 116.898 399.434 114.739 401.567C114.456 401.847 114.184 402.17 114.116 402.561C113.981 403.327 114.717 404.026 115.49 404.154C116.263 404.281 117.039 404.002 117.772 403.728C119.295 403.158 120.818 402.587 122.341 402.017C123.443 401.605 124.752 401.211 125.732 401.859C126.746 402.53 126.842 404.056 126.269 405.124C125.695 406.191 124.643 406.907 123.631 407.581C121.19 409.204 118.75 410.827 116.309 412.45C114.266 413.809 111.977 415.641 112.171 418.075C112.354 420.365 114.893 421.922 117.204 421.775C119.514 421.628 121.548 420.226 123.253 418.672C124.959 417.117 126.498 415.343 128.478 414.152C129.77 413.375 131.614 412.944 132.664 414.022C133.475 414.855 133.397 416.195 133.092 417.313C132.215 420.536 129.843 423.326 126.789 424.727C129.274 425.296 131.865 425.403 134.389 425.042C135.828 424.836 137.318 424.44 138.359 423.432C139.4 422.424 139.803 420.65 138.9 419.519C137.553 417.831 137.607 415.362 138.467 413.386C139.328 411.41 140.865 409.814 142.37 408.264C141.939 407.383 140.68 407.323 139.738 407.616ZM151.241 411.447C152.594 408.343 152.643 404.833 152.301 401.469C151.922 397.748 150.615 393.493 147.082 392.189C141.906 394.321 137.911 399.078 136.731 404.515C136.632 404.972 136.554 405.463 136.735 405.894C136.917 406.326 137.455 406.64 137.872 406.424C139.303 405.679 141.063 405.257 142.518 405.954C143.973 406.652 144.681 408.828 143.503 409.925C142.202 411.137 140.865 412.398 140.163 414.027C139.46 415.656 139.562 417.764 140.884 418.954C141.877 419.849 141.88 421.605 140.889 422.502C143.706 421.685 145.714 419.282 147.541 417.002C148.937 415.259 150.35 413.49 151.241 411.447ZM118.808 395.397C115.877 396.603 113.033 398.015 110.302 399.618C109.653 400 108.996 400.403 108.522 400.985C107.88 401.771 107.637 402.796 107.439 403.788C106.799 406.992 106.469 410.442 107.824 413.419C108.257 414.369 108.849 415.238 109.437 416.101C109.611 416.356 109.808 416.629 110.106 416.714C110.404 416.8 110.797 416.562 110.727 416.262C110.512 415.338 111.217 414.469 111.913 413.819C115.988 410.012 121.479 407.827 125.144 403.629C124.588 402.975 123.534 403.282 122.741 403.618C120.853 404.418 118.906 405.081 116.921 405.601C115.897 405.869 114.756 406.087 113.821 405.593C112.453 404.869 112.231 402.889 112.953 401.529C113.676 400.168 115.049 399.289 116.374 398.49C117.698 397.692 119.088 396.858 119.882 395.537C119.738 395.161 119.182 395.243 118.808 395.397ZM128.838 420.9C130.133 419.867 131.533 418.649 131.674 417.007C131.748 416.147 131.192 415.097 130.328 415.179C130.062 415.204 129.819 415.335 129.59 415.471C125.824 417.703 123.345 422.069 119.096 423.155C120.297 423.688 121.549 424.108 122.829 424.406C123.211 424.495 123.608 424.573 123.991 424.494C124.438 424.403 124.811 424.111 125.166 423.828C126.39 422.852 127.614 421.876 128.838 420.9ZM132.341 385.207C131.502 386.127 130.664 387.046 129.826 387.966C129.162 388.695 128.45 389.656 128.82 390.568C129.092 391.239 129.896 391.578 130.623 391.522C131.35 391.466 132.012 391.097 132.622 390.7C134.795 389.285 136.751 387.358 139.286 386.793C137.528 386.157 135.77 385.522 134.012 384.886C133.646 384.754 133.238 384.621 132.878 384.769C132.662 384.857 132.497 385.035 132.341 385.207Z" fill="white"/>
<path fill-rule="evenodd" clip-rule="evenodd" d="M165.056 275.327C164.836 279.686 161.448 284.407 157.08 283.891C155.109 281.629 153.567 278.821 152.042 276.046L152.042 276.046C149.114 270.716 146.253 265.508 140.552 264.52C134.952 263.549 129.738 267.635 126.25 272.09C121.2 278.541 117.936 286.357 116.907 294.462C116.302 299.228 118.271 305.837 123.082 305.312C128.578 304.713 132.486 309.003 136.461 313.366C140.14 317.404 143.876 321.505 148.981 321.851C155.059 322.263 160.024 325.877 165.05 329.535C168.407 331.978 171.791 334.441 175.551 335.983C182.626 338.883 190.785 338.322 198.006 335.803C205.228 333.284 211.655 328.945 217.738 324.333L218.057 324.091L218.057 324.091C221.377 321.571 224.853 318.933 228.982 318.378C250.095 315.54 269.732 303.251 281.411 285.567C297.969 298.703 321.12 303.192 341.443 297.209C344.891 296.194 348.361 294.832 350.918 292.322C353.476 289.812 354.926 285.914 353.669 282.57C352.294 278.913 348.186 276.955 344.282 276.484C342.141 276.226 339.984 276.302 337.826 276.378C336.046 276.441 334.265 276.504 332.492 276.38C321.757 275.627 312.818 268.279 304.69 261.28C316.467 257.694 326.016 248.69 332.321 238.188C338.626 227.685 342.006 215.721 344.573 203.765C345.923 197.473 346.927 190.385 343.305 185.049C341.683 182.662 339.306 180.916 336.937 179.176C334.27 177.217 331.613 175.266 330.058 172.414C327.067 166.929 321.236 163.676 315.706 160.713C301.234 152.959 284.61 144.978 269.013 150.157C262.938 152.174 257.69 156.039 252.573 159.865C244.076 166.217 234.973 173.669 233.355 184.103C219.452 177.931 201.464 182.86 192.724 195.239C190.725 198.071 189.19 201.193 187.657 204.312C185.852 207.985 184.049 211.652 181.493 214.836C171.227 210.194 160.767 205.975 150.149 202.192C145.441 200.516 139.817 199.034 135.76 201.937C132.507 204.264 131.509 208.833 132.464 212.699C133.419 216.564 135.968 219.841 138.702 222.753C144.633 229.07 151.756 234.281 159.593 238.033C159.845 238.154 160.1 238.274 160.355 238.395C162.809 239.555 165.331 240.747 166.965 242.877C168.769 245.227 168.881 249.161 166.352 250.721C162.617 253.025 161.929 258.194 162.695 262.492C162.956 263.961 163.34 265.415 163.724 266.868C164.463 269.666 165.2 272.458 165.056 275.327ZM266.463 298.309C257.051 308.117 243.806 313.854 230.264 315.531C216.722 317.209 202.893 315.028 189.957 310.714C193.437 310.712 195.953 306.191 194.102 303.266C186.972 311.514 176.103 315.377 165.746 318.904C156.389 322.091 145.204 319.777 138.331 312.716C131.458 305.655 129.598 294.069 134.432 285.504C136.533 281.78 140.096 278.539 144.38 278.174C148.665 277.809 153.278 281.334 152.881 285.583C150.497 285.172 147.988 287.181 147.89 289.581C157.112 288.595 165.783 283.35 170.893 275.667C172.656 273.015 173.996 270.126 175.338 267.235C176.238 265.294 177.139 263.352 178.169 261.48C180.734 256.818 184.416 252.375 189.518 250.773C193.613 249.488 198.04 250.201 202.272 250.925L221.076 254.143C222.483 252.937 220.204 251.005 218.384 250.628C212.507 249.409 206.549 248.658 200.59 247.907L200.59 247.907L200.59 247.907L200.589 247.907L200.589 247.907L200.589 247.907H200.589C195.063 247.211 189.537 246.514 184.075 245.445C172.723 243.222 161.313 239.157 153.051 231.118C158.655 227.919 162.92 222.482 164.669 216.304C165.023 215.055 164.18 213.002 163.157 213.811C161.989 217.821 160.722 222.004 157.795 225.001C154.867 227.999 149.729 229.316 146.416 226.744C142.114 223.406 137.592 219.764 135.891 214.614C134.19 209.465 136.881 202.549 142.304 201.918C144.739 201.634 147.118 202.633 149.363 203.609L172.011 213.461C178.752 216.393 185.593 219.355 192.874 220.419C197.986 221.166 203.186 220.956 208.349 220.745L222.986 220.146C223.584 220.121 224.198 220.093 224.749 219.86C226.22 219.238 226.718 217.455 227.043 215.902C230.971 197.092 236.248 177.243 250.525 164.272C256.913 158.468 264.871 154.381 273.336 152.558C281.679 150.761 290.885 151.289 298.068 155.869C286.018 156.749 274.317 161.791 265.443 169.929C261.715 165.979 254.776 169.208 251.802 173.744C247.192 180.777 247.276 190.546 252.005 197.5C255.987 203.353 257.463 210.337 258.943 217.338C260.303 223.771 261.666 230.219 264.979 235.814C270.22 244.667 279.979 250.35 290.172 252.111C300.365 253.873 310.932 252.033 320.619 248.428C309.777 259.16 292.456 262.872 278.117 257.536C277.072 257.147 276.032 256.713 274.991 256.278C271.697 254.901 268.391 253.52 264.857 253.561C266.927 255.736 269.571 257.37 272.453 258.252C269.13 263.79 265.645 269.231 262.002 274.567C261.536 275.249 261.005 275.976 260.208 276.207C259.319 276.464 258.391 276.025 257.581 275.581C250.883 271.907 244.88 266.991 239.973 261.163L230.158 273.011C235.195 279.122 241.084 284.539 247.604 289.061C238.926 299.701 225.778 306.631 212.035 307.808C226.26 308.527 240.661 301.906 249.306 290.672C254.779 293.721 260.528 296.281 266.463 298.309ZM311.449 194.124C314.593 190.722 315.757 185.864 315.489 181.256C315.22 176.649 313.659 172.218 311.93 167.933C316.433 167.403 321.007 169.089 324.594 171.842C328.181 174.595 330.875 178.34 333.084 182.269C335.763 187.032 337.817 192.182 338.708 197.565C340.806 210.238 336.326 223.16 329.949 234.335C328.711 236.505 327.379 238.66 325.571 240.393C323.751 242.137 321.512 243.392 319.217 244.45C309.748 248.816 298.855 250.076 288.628 247.988C295.157 242.593 299.767 235.162 302.704 227.251C305.64 219.34 306.985 210.932 307.758 202.536L307.763 202.489C307.958 200.372 308.163 198.147 309.379 196.399C309.781 195.82 310.279 195.318 310.778 194.816L310.778 194.816C311.005 194.588 311.231 194.359 311.449 194.124ZM299.634 229.092C296.817 235.631 292.452 241.636 286.536 245.649C285.843 246.119 285.099 246.573 284.265 246.669C283.529 246.755 282.792 246.554 282.085 246.332C277.055 244.757 272.302 241.963 269.074 237.822C267.903 236.319 266.947 234.662 266.094 232.961C259.882 220.575 259.274 205.547 264.464 192.706C264.712 192.092 265.067 191.404 265.72 191.275C266.565 191.109 267.213 191.966 267.688 192.68C271.565 198.51 278.815 201.462 285.847 201.767C292.88 202.073 299.797 200.09 306.466 197.853C305.251 200.802 304.941 204.015 304.634 207.198C304.596 207.598 304.557 207.999 304.517 208.398C303.802 215.475 302.452 222.552 299.634 229.092ZM298.203 168.339C301.801 167.527 306 167.303 308.749 169.746C309.637 170.535 310.297 171.547 310.84 172.6C314.246 179.205 312.912 187.903 307.681 193.203C301.633 199.331 292.062 200.341 283.45 199.614C280.36 199.353 277.183 198.881 274.545 197.263C271.132 195.169 269.11 191.479 267.241 187.956C275.539 178.755 286.069 171.076 298.203 168.339ZM327.306 279.414C326.177 282.243 325.037 285.11 324.668 288.131C324.298 291.151 324.779 294.393 326.63 296.818C311.269 297.662 295.658 292.961 283.359 283.788C287.325 278.219 290.457 272.065 292.621 265.592C293.476 263.035 296.738 261.968 299.386 262.56C301.825 263.105 303.872 264.657 305.869 266.172C306.041 266.302 306.212 266.432 306.384 266.561C312.923 271.488 320.128 275.46 327.306 279.414ZM219.963 318.046C217.54 320.753 214.645 322.999 211.687 325.119C205.513 329.542 198.781 333.563 191.278 334.848C180.281 336.731 168.4 332.025 161.734 323.144L185.719 314.264C186.294 314.052 186.889 313.836 187.5 313.87C187.846 313.89 188.179 313.988 188.512 314.087C188.734 314.152 188.956 314.218 189.182 314.261C189.952 314.405 190.729 314.278 191.51 314.151C191.995 314.071 192.482 313.992 192.969 313.977C194.764 313.924 196.414 314.738 198.047 315.544C198.461 315.748 198.875 315.952 199.289 316.141C205.649 319.044 212.982 318.574 219.963 318.046ZM185.331 216.204C185.162 215.829 185.34 215.398 185.518 215.027C190.43 204.818 196.928 195.362 204.712 187.097C210.187 194.641 213.831 203.485 215.251 212.674C215.535 214.511 215.228 217.052 213.37 217.282C204.463 218.383 195.399 218.234 186.534 216.838C186.065 216.765 185.524 216.634 185.331 216.204ZM218.879 215.575C217.045 205.569 213.237 195.923 207.735 187.343C212.392 184.91 217.897 184.87 223.16 184.886C226.484 184.897 230.113 185.013 232.646 187.149L226.075 206.388C224.96 209.654 223.83 213.012 223.971 216.458L219.817 216.524C219.669 216.527 219.517 216.528 219.38 216.471C219.048 216.334 218.943 215.926 218.879 215.575ZM272.32 264.811C273.423 262.948 274.474 260.959 274.585 258.801C279.555 261.019 285.027 262.118 290.475 261.992C291.33 261.972 291.299 263.28 290.949 264.055C289.888 266.397 288.826 268.742 287.598 271.004C286.339 273.324 284.908 275.549 283.48 277.771L280.055 283.098C279.587 283.827 279.103 284.573 278.406 285.093C276.537 286.487 273.869 285.817 271.735 284.866C268.197 283.288 264.94 281.091 262.16 278.406C266.021 274.25 269.433 269.684 272.32 264.811ZM143.817 269.414C145.464 271.061 146.539 273.172 147.589 275.246L142.649 275.945C141.003 276.178 139.316 276.424 137.861 277.223C136.446 278 135.355 279.246 134.394 280.537C130.377 285.938 128.15 292.628 128.136 299.341C128.131 301.766 125.244 303.495 122.88 302.881C120.517 302.266 118.911 299.936 118.503 297.546C118.094 295.155 118.67 292.711 119.391 290.395C121.931 282.243 126.473 274.544 133.194 269.223C134.478 268.206 135.897 267.254 137.519 266.997C139.828 266.63 142.171 267.766 143.817 269.414ZM351.238 283.059C351.81 283.788 352.233 284.675 352.207 285.598C352.174 286.79 351.412 287.836 350.592 288.708C345.824 293.779 338.496 295.505 331.556 296.319C331.098 296.373 330.618 296.421 330.189 296.254C329.836 296.117 329.554 295.848 329.302 295.567C327.628 293.698 326.964 291.086 327.1 288.589C327.236 286.092 328.104 283.687 329.186 281.428C329.413 280.952 329.677 280.453 330.141 280.198C330.512 279.994 330.954 279.978 331.377 279.967L339.777 279.748C341.845 279.695 343.936 279.643 345.96 280.066C347.985 280.489 349.967 281.439 351.238 283.059ZM257.625 204.298C254.202 198.005 251.642 191.25 250.035 184.279L251.418 180.614C253.129 177.327 255.285 174.269 257.811 171.549C258.84 170.441 260.623 170.318 262.042 170.852C263.462 171.386 264.604 172.448 265.706 173.484L270.665 178.146C270.813 178.285 270.967 178.435 271.016 178.63C271.108 178.998 270.802 179.336 270.525 179.597C268.202 181.788 266.139 184.259 264.484 186.982C261.984 191.098 260.457 195.711 258.95 200.279L257.625 204.298ZM270.299 168.952C280.397 163.585 291.441 158.535 302.83 159.743C308.785 160.374 314.481 162.725 319.44 166.055C305.232 162.431 289.395 165.774 277.903 174.823C276.127 176.222 273.462 177.741 271.881 176.128C271.475 175.714 271.209 175.134 270.951 174.569C270.536 173.664 270.139 172.797 269.211 172.712C268.325 172.631 267.932 171.439 268.307 170.639C268.683 169.839 269.516 169.368 270.299 168.952ZM242.561 267.111C244.554 269.011 246.749 270.689 248.938 272.362L257.785 279.124C255.06 281.506 252.395 283.955 249.792 286.467C243.594 282.821 238.062 278.065 233.543 272.497C236.017 269.94 238.391 267.288 240.66 264.551C241.016 265.561 241.783 266.369 242.561 267.111ZM185.683 248.822C181.025 252.433 176.209 256.235 173.647 261.521C173.146 262.554 172.733 263.641 172.32 264.726C171.442 267.033 170.567 269.332 168.865 271.088C168.111 270.869 167.814 269.986 167.631 269.228L165.858 261.911C165.619 260.924 165.378 259.91 165.514 258.903C165.649 257.902 166.147 256.989 166.636 256.103L171.836 246.671C171.952 246.461 172.072 246.246 172.258 246.092C172.718 245.713 173.399 245.834 173.98 245.975L185.683 248.822ZM261.353 281.221C264.529 284.462 268.477 286.953 272.782 288.434C273.587 287.682 275.143 288.096 275.46 289.147C273.979 291.055 272.352 292.851 270.6 294.516C269.817 295.26 268.563 295.103 267.507 294.862C262.348 293.687 257.378 291.696 252.844 288.986C252.54 288.805 252.199 288.547 252.229 288.197C252.249 287.962 252.436 287.779 252.611 287.618L258.978 281.799C259.646 281.189 260.72 280.575 261.353 281.221ZM342.639 199.932C342.58 200.645 342.478 201.441 341.917 201.89C341.912 196.289 340.512 190.694 337.877 185.741C337.399 184.843 336.881 183.965 336.304 183.125C336.23 183.017 336.155 182.909 336.079 182.801C335.498 181.968 334.903 181.115 334.761 180.121L341.583 187.193C342.211 187.844 342.856 188.523 343.153 189.374C343.439 190.195 343.371 191.09 343.299 191.956L342.639 199.932ZM334.8 190.945L333.255 189.012C331.555 186.886 329.47 184.564 326.735 184.561C325.148 184.56 323.688 185.366 322.311 186.15L320.172 187.367C319.588 187.7 318.988 188.046 318.576 188.574C317.388 190.1 318.255 192.328 319.378 193.902C320.155 194.99 321.086 196.035 322.322 196.559C323.922 197.237 325.761 196.937 327.437 196.479C329.733 195.85 331.951 194.944 334.026 193.786C334.69 193.416 335.423 192.873 335.39 192.118C335.37 191.674 335.079 191.293 334.8 190.945ZM321.303 192.436C321.037 192.016 320.762 191.567 320.758 191.071C320.75 190.102 321.725 189.451 322.583 188.986L325.632 187.336C326.093 187.086 326.573 186.831 327.097 186.796C327.621 186.761 328.204 187.011 328.38 187.502C328.9 188.951 330.181 190.107 331.684 190.483C332.171 190.605 332.327 191.273 332.097 191.716C331.867 192.158 331.396 192.417 330.947 192.638C329.34 193.43 327.659 194.075 325.934 194.564C325.242 194.759 324.51 194.931 323.811 194.766C322.666 194.496 321.929 193.425 321.303 192.436ZM299.611 207.375C296.587 207.725 296.012 213.136 297.416 216.022C297.705 216.616 298.158 217.227 298.817 217.31C299.944 217.452 300.566 216.072 300.816 214.972L300.821 214.947C301.15 213.497 302.618 207.028 299.611 207.375ZM284.015 214.473C284.619 213.074 284.821 211.505 284.59 209.999C284.483 209.3 284.271 208.589 283.8 208.058C283.329 207.527 282.55 207.218 281.879 207.457C281.272 207.674 280.89 208.264 280.602 208.837C279.588 210.861 279.183 213.182 279.454 215.427C279.58 216.472 280.906 217.042 281.912 216.712C282.919 216.382 283.597 215.44 284.015 214.473ZM292.93 211.27C293.399 210.884 293.992 211.585 294.182 212.16C294.808 214.049 295.327 215.973 295.734 217.92C295.991 219.15 296.204 220.428 295.93 221.655C295.543 223.385 294.218 224.792 292.681 225.693C291.144 226.594 289.394 227.061 287.669 227.517C287.213 227.638 286.64 227.724 286.346 227.358C286.096 227.048 286.219 226.562 286.504 226.282C286.783 226.008 287.171 225.881 287.545 225.759L287.567 225.752C290.256 224.876 293.13 223.293 293.756 220.554C294.1 219.048 293.681 217.534 293.261 216.015C292.878 214.631 292.493 213.241 292.682 211.847C292.711 211.635 292.764 211.407 292.93 211.27ZM274.149 205.108C273.441 204.135 274.008 202.655 275.035 202.021C276.062 201.386 277.36 201.394 278.56 201.548C279.993 201.732 281.402 202.093 282.744 202.622C283.03 202.734 283.338 202.877 283.463 203.156C283.697 203.671 283.094 204.236 282.524 204.235C282.066 204.235 281.65 204.016 281.24 203.8C281.14 203.747 281.041 203.695 280.941 203.646C278.7 202.542 275.728 203.182 274.149 205.108ZM299.98 204.773C301.045 204.597 302.175 204.841 303.069 205.44C303.443 205.691 303.979 205.269 303.981 204.822C303.983 204.374 303.647 203.997 303.292 203.72C302.528 203.124 301.577 202.767 300.607 202.712C299.98 202.677 299.287 202.797 298.884 203.274C298.48 203.751 298.602 204.646 299.207 204.812C299.422 204.871 299.649 204.831 299.871 204.792C299.908 204.785 299.944 204.779 299.98 204.773ZM286.762 232.234C287.062 232.066 287.457 232.359 287.502 232.698C287.546 233.037 287.352 233.361 287.129 233.621C286.012 234.929 284.088 235.332 282.389 235.025C280.689 234.719 279.166 233.812 277.732 232.856C277.058 232.406 276.394 231.941 275.741 231.462C275.063 230.966 274.342 230.358 274.261 229.527C274.18 228.695 275.253 227.857 275.866 228.43C277.373 229.838 278.914 231.269 280.788 232.14C282.662 233.011 284.96 233.243 286.762 232.234ZM254.501 238.902C248.224 225.361 245.605 210.171 246.99 195.33C247.013 195.076 247.046 194.804 247.214 194.613C247.453 194.342 247.941 194.353 248.167 194.635C248.086 202.799 248.009 211.012 249.352 219.067C250.695 227.122 253.547 235.091 258.753 241.413C258.908 241.601 259.066 241.788 259.224 241.976L259.225 241.978C260.121 243.043 261.024 244.118 261.532 245.403C258.146 245.339 255.916 241.955 254.501 238.902ZM260.658 177.757C260.542 177.633 260.407 177.523 260.25 177.456C259.797 177.262 259.267 177.461 258.87 177.752C257.29 178.912 257.284 181.627 258.859 182.794C259.627 182.145 260.415 181.47 260.866 180.574C261.316 179.677 261.343 178.493 260.658 177.757ZM274.281 192.057C275.984 193.428 277.925 194.509 279.992 195.236C286.663 197.584 294.159 196.11 300.597 193.19C301.58 192.744 302.835 192.979 303.587 193.75C299.454 196.673 294.39 198.28 289.315 198.279C288.195 198.278 287.077 198.202 285.962 198.106C283.681 197.908 281.382 197.618 279.236 196.825C277.09 196.032 275.086 194.691 273.871 192.764L274.281 192.057ZM346.923 281.276C346.857 281.502 347.04 281.718 347.208 281.883L349.742 284.379C350.018 283.661 349.708 282.825 349.177 282.267C348.645 281.708 347.927 281.368 347.227 281.04C347.09 281.046 346.962 281.146 346.923 281.276Z" fill="white"/>
<path fill-rule="evenodd" clip-rule="evenodd" d="M513.384 184.182C516.489 185.25 519.414 182.471 522.089 180.578C526.23 177.648 531.631 176.541 536.603 177.602C537.427 177.778 538.291 178.042 538.834 178.682C539.331 179.268 539.472 180.067 539.552 180.828C540.042 185.489 538.867 190.305 536.285 194.227C535.029 196.136 533.455 197.835 532.331 199.823C531.207 201.811 530.566 204.24 531.366 206.377C536.125 219.08 534.144 234.064 526.245 245.119C518.346 256.175 504.753 262.987 491.099 262.734C484.116 262.604 477.274 260.754 470.695 258.428C467.824 257.414 464.669 256.3 461.819 257.372C456.62 259.327 451.146 260.562 445.605 261.029C444.23 261.145 442.794 261.205 441.525 260.666C439.626 259.86 438.48 257.816 438.262 255.778C438.044 253.74 438.612 251.7 439.329 249.777C441.492 243.979 448.209 234.921 452.275 232.835C451.946 225.794 451.982 218.67 453.516 211.788C455.05 204.906 458.18 198.228 463.316 193.358C465.437 191.347 467.864 189.673 470.407 188.22C483.266 180.872 499.363 179.36 513.384 184.182ZM493.8 183.611C483.967 183.839 474.394 187.759 466.707 193.849C464.45 195.637 462.329 197.624 460.635 199.945C459.3 201.775 458.244 203.794 457.361 205.876C452.126 218.234 453.321 233.082 460.467 244.458C460.623 244.706 460.802 244.969 461.08 245.066C461.423 245.185 461.792 245.011 462.113 244.842C484.558 232.972 504.536 216.532 520.446 196.84C520.825 196.371 521.224 195.826 521.142 195.231C521.081 194.784 520.759 194.421 520.446 194.095C513.657 187.031 503.634 183.382 493.8 183.611ZM507.548 257.383C518.209 252.416 526.306 242.601 529.769 231.431C530.553 228.901 531.117 226.286 531.172 223.64C531.219 221.415 530.906 219.199 530.594 216.996C530.141 213.8 529.689 210.605 529.237 207.41C529.117 206.562 528.294 205.444 527.693 206.058C511.013 223.093 492.799 238.649 473.338 252.479C472.691 252.939 471.978 253.508 471.943 254.298C471.903 255.211 472.782 255.874 473.58 256.331C483.783 262.17 496.887 262.35 507.548 257.383ZM441.789 256.083C442.564 257.317 444.246 257.57 445.711 257.61C453.399 257.821 461.005 255.586 467.883 252.171C474.761 248.757 480.987 244.19 487.037 239.478C495.106 233.193 502.934 226.606 510.563 219.802C520.011 211.374 529.295 202.436 535.499 191.434C536.698 189.306 537.806 186.972 537.618 184.541C537.431 182.109 535.476 179.654 533.021 179.749C527.81 179.951 522.687 181.939 518.72 185.299C517.931 185.967 518.489 187.389 519.46 187.751C520.431 188.113 521.513 187.753 522.462 187.338C523.41 186.922 524.398 186.436 525.429 186.55C527.004 186.723 528.122 188.323 528.216 189.893C528.309 191.462 527.61 192.971 526.786 194.313C525.261 196.798 523.269 198.965 521.257 201.081C503.367 219.889 482.73 236.121 460.191 249.109C458.162 250.279 456.108 251.426 453.924 252.278C452.778 252.725 451.464 253.084 450.346 252.573C448.513 251.735 448.366 249.18 448.916 247.253C449.742 244.359 451.526 241.742 453.927 239.906C453.472 238.635 453.018 237.364 452.563 236.092C446.637 239.849 442.478 246.238 441.464 253.144C441.318 254.14 441.252 255.228 441.789 256.083ZM458.639 247.358C458.681 247.227 458.604 247.09 458.53 246.974C457.765 245.767 456.999 244.56 456.234 243.352C455.887 242.806 455.217 242.188 454.698 242.576C452.826 243.975 451.487 246.058 450.997 248.331C450.9 248.78 450.844 249.281 451.09 249.669C451.548 250.391 452.642 250.23 453.452 249.943C455.178 249.329 456.84 248.54 458.405 247.591C458.502 247.533 458.605 247.465 458.639 247.358ZM525.237 189.896C525.16 189.583 524.784 189.446 524.459 189.432C523.473 189.39 522.442 190.194 522.504 191.172C522.567 192.15 524.032 192.766 524.644 191.997C524.828 191.765 524.906 191.469 524.98 191.182C525.053 190.898 525.126 190.614 525.199 190.33C525.235 190.188 525.272 190.039 525.237 189.896Z" fill="white"/>
</svg>
