<svg enable-background="new 0 0 64 64" height="64" viewBox="0 0 64 64" width="64" xmlns="http://www.w3.org/2000/svg" xmlns:xlink="http://www.w3.org/1999/xlink"><linearGradient id="a"><stop offset="0" stop-color="#2bc4f3"/><stop offset=".5" stop-color="#00aeee"/><stop offset="1" stop-color="#0095da"/></linearGradient><linearGradient id="b" gradientUnits="userSpaceOnUse" x1="29.0581" x2="29.0581" xlink:href="#a" y1="102.624" y2="-57.5722"/><linearGradient id="c"><stop offset="0" stop-color="#e5e2df"/><stop offset="0" stop-color="#f1efee"/><stop offset="0" stop-color="#fff"/><stop offset=".1259" stop-color="#f0f0f1"/><stop offset=".3664" stop-color="#c9cacb"/><stop offset=".5225" stop-color="#adaeb0"/><stop offset=".6029" stop-color="#a3a5a7"/><stop offset=".7382" stop-color="#898d90"/><stop offset=".9108" stop-color="#5f6769"/><stop offset="1" stop-color="#465053"/></linearGradient><radialGradient id="d" cx="30.7739" cy="24.0225" gradientTransform="matrix(.7071 .7071 -.7071 .7071 33.3838 -12.7849)" gradientUnits="userSpaceOnUse" r="7.0519" xlink:href="#c"/><linearGradient id="e" gradientTransform="matrix(.7071 .7071 -.7071 .7071 33.3838 -12.7849)" gradientUnits="userSpaceOnUse" x1="22.7666" x2="38.7822" y1="32.4209" y2="32.4209"><stop offset="0" stop-color="#e5e2df"/><stop offset="0" stop-color="#ded9d6"/><stop offset=".063" stop-color="#cfcac9"/><stop offset=".1833" stop-color="#a8a4a7"/><stop offset=".264" stop-color="#8b878d"/><stop offset=".5225" stop-color="#f3f4f4"/><stop offset=".5842" stop-color="#e5e5e6"/><stop offset=".7027" stop-color="#c0bec0"/><stop offset=".8647" stop-color="#858085"/><stop offset=".8764" stop-color="#807b80"/><stop offset="1" stop-color="#d1d3d4"/><stop offset="1" stop-color="#a7a9ac"/></linearGradient><radialGradient id="f" cx="30.771" cy="45.6641" gradientTransform="matrix(.7071 .7071 -.7071 .7071 33.3838 -12.7849)" gradientUnits="userSpaceOnUse" r="8.0068" xlink:href="#c"/><linearGradient id="g" gradientTransform="matrix(.7071 .7071 -.7071 .7071 33.3838 -12.7849)" gradientUnits="userSpaceOnUse" x1="30.7705" x2="30.7705" xlink:href="#a" y1="57.292" y2="36.6579"/><radialGradient id="h" cx="30.771" cy="51.9141" gradientTransform="matrix(.7071 .7071 -.7071 .7071 33.3838 -12.7849)" gradientUnits="userSpaceOnUse" r="1.3364"><stop offset=".1798" stop-color="#f4e8d9"/><stop offset=".5899" stop-color="#edd089"/><stop offset="1" stop-color="#c08329"/></radialGradient><path d="m42.361 21.758c-2.987-2.989-7.157-3.709-9.546-1.737-.035.016-.071.03-.097.056l-.222.223-12.104 12.105c-.311.311.108 1.287 1.021 2.591.069.119.154.25.238.381-.89-.385-1.606-.466-1.958-.116-.049.05-.065.126-.099.188-2.686-1.18-5.166-1.226-6.544.148-.813.812 1.993 4.934 6.261 9.2 4.273 4.279 8.394 7.081 9.205 6.27 1.379-1.379 1.333-3.86.149-6.55.062-.033.138-.049.187-.098.352-.351.271-1.066-.115-1.957.136.088.274.177.398.249 1.299.905 2.271 1.32 2.581 1.011l12.328-12.321c.028-.028.044-.066.061-.104 1.965-2.389 1.246-6.546-1.744-9.539z" style="fill-rule:evenodd;clip-rule:evenodd;stroke:#3e3a39;stroke-width:2;stroke-linecap:round;stroke-linejoin:round;stroke-miterlimit:10;fill:url(#b)"/><path clip-rule="evenodd" d="m16.34 29.132h32.069v5.463h-32.069z" fill="#231815" fill-rule="evenodd" transform="matrix(-.7072 -.707 .707 -.7072 32.7421 77.2868)"/><path d="m48.438 24.271c.314-.316-.948-2.896-3.319-5.269-2.369-2.371-4.951-3.632-5.265-3.316l-5.163 7.794c-.313.312.769 1.897 2.41 3.541 1.646 1.646 3.229 2.723 3.54 2.41z" style="fill-rule:evenodd;clip-rule:evenodd;fill:#3e3a39;stroke:#231815;stroke-width:2;stroke-linecap:round;stroke-linejoin:round;stroke-miterlimit:10"/><path clip-rule="evenodd" d="m48.438 24.271c.314-.316-.948-2.896-3.319-5.269-2.369-2.371-4.951-3.632-5.265-3.316l-5.163 7.794c-.313.312.769 1.897 2.41 3.541 1.646 1.646 3.229 2.723 3.54 2.41z" fill="#3e3a39" fill-rule="evenodd"/><ellipse clip-rule="evenodd" cx="41.523" cy="22.715" fill="#231815" fill-rule="evenodd" rx="6.71" ry="2.155" transform="matrix(-.7071 -.7071 .7071 -.7071 54.8196 68.1393)"/><path clip-rule="evenodd" d="m32.496 20.3c2.321-2.32 6.743-1.667 9.866 1.458 3.129 3.133 3.779 7.547 1.456 9.868-2.314 2.313-6.73 1.667-9.861-1.459-3.129-3.127-3.78-7.546-1.461-9.867z" fill="url(#d)" fill-rule="evenodd"/><path clip-rule="evenodd" d="m44.044 31.402c.596-.595-1.455-3.609-4.585-6.742-3.126-3.124-6.144-5.177-6.741-4.582l-12.326 12.327c-.594.595 1.458 3.605 4.586 6.734 3.129 3.128 6.145 5.177 6.738 4.584z" fill="url(#e)" fill-rule="evenodd"/><path clip-rule="evenodd" d="m21.052 33.593c.497-.495 3.021 1.215 5.635 3.83 2.621 2.621 4.337 5.145 3.839 5.642-.498.498-3.021-1.218-5.642-3.838-2.614-2.611-4.331-5.137-3.832-5.634z" fill="#d7d06b" fill-rule="evenodd"/><ellipse clip-rule="evenodd" cx="24.272" cy="39.84" fill="#3e3a39" fill-rule="evenodd" rx="6.477" ry="2.08" transform="matrix(-.7071 -.7071 .7071 -.7071 13.2643 85.1749)"/><path clip-rule="evenodd" d="m13.05 35.598c2.287-2.279 7.602-.675 11.871 3.592 4.273 4.275 5.882 9.591 3.595 11.878z" fill="url(#f)" fill-rule="evenodd"/><path clip-rule="evenodd" d="m13.05 35.598c.813-.813 4.933 1.991 9.202 6.261 4.271 4.274 7.076 8.396 6.264 9.209-.812.812-4.932-1.99-9.205-6.27-4.268-4.267-7.074-8.389-6.261-9.2z" fill="url(#g)" fill-rule="evenodd"/><path clip-rule="evenodd" d="m13.05 35.598c.813-.813 4.933 1.991 9.202 6.261 4.271 4.274 7.076 8.396 6.264 9.209-.812.812-4.932-1.99-9.205-6.27-4.268-4.267-7.074-8.389-6.261-9.2z" fill="url(#g)" fill-rule="evenodd"/><path clip-rule="evenodd" d="m13.05 35.598c.813-.813 4.933 1.991 9.202 6.261 4.271 4.274 7.076 8.396 6.264 9.209-.812.812-4.932-1.99-9.205-6.27-4.268-4.267-7.074-8.389-6.261-9.2z" fill="url(#g)" fill-rule="evenodd"/><path d="m24.702 44.473-6.324.582c-.346.031-.603.339-.572.685.017.152.082.288.184.39.127.128.309.199.505.18l7.107-.652c.031-.002.054-.018.083-.025-.309-.378-.637-.765-.983-1.16z" fill="#595757"/><path d="m19.645 39.414c-.396-.347-.781-.675-1.159-.981-.006.027-.022.051-.024.082l-.655 7.11c-.018.193.055.375.183.504.102.1.235.166.389.182.346.032.652-.225.685-.571z" fill="#595757"/><g clip-rule="evenodd"><path d="m17.588 44.834c.57-.57 1.409-.654 1.879-.187.463.469.385 1.31-.186 1.88-.571.569-1.416.653-1.884.187-.465-.468-.38-1.309.191-1.88z" fill="url(#h)" fill-rule="evenodd"/><path d="m45.666 41.289-3.861-3.862 3.861-3.857 3.863 3.857z" style="fill-rule:evenodd;fill:#91d9f8;stroke:#036eb5;stroke-linecap:round;stroke-linejoin:round;stroke-miterlimit:10"/><path d="m46.798 38.557h5.461v5.463h-5.461z" style="fill-rule:evenodd;fill:#2ca4de;stroke:#036eb5;stroke-linecap:round;stroke-linejoin:round;stroke-miterlimit:10" transform="matrix(.7072 .707 -.707 .7072 43.694 -22.9283)"/><path d="m50.659 42.421h5.466v5.462h-5.466z" style="fill-rule:evenodd;fill:#2ca4de;stroke:#036eb5;stroke-linecap:round;stroke-linejoin:round;stroke-miterlimit:10" transform="matrix(.707 .7072 -.7072 .707 47.5745 -24.5298)"/><path d="m39.072 38.559h5.466v5.464h-5.466z" style="fill-rule:evenodd;fill:#2ca4de;stroke:#036eb5;stroke-linecap:round;stroke-linejoin:round;stroke-miterlimit:10" transform="matrix(.707 .7072 -.7072 .707 41.4485 -17.4667)"/><path d="m42.936 42.421h5.461v5.464h-5.461z" style="fill-rule:evenodd;fill:#2ca4de;stroke:#036eb5;stroke-linecap:round;stroke-linejoin:round;stroke-miterlimit:10" transform="matrix(.7071 .7071 -.7071 .7071 45.3028 -19.0659)"/><path d="m46.798 46.282h5.461v5.464h-5.461z" style="fill-rule:evenodd;fill:#91d9f8;stroke:#036eb5;stroke-linecap:round;stroke-linejoin:round;stroke-miterlimit:10" transform="matrix(.7072 .707 -.707 .7072 49.1556 -20.666)"/><path d="m35.209 42.422h5.466v5.461h-5.466z" style="fill-rule:evenodd;fill:#2ca4de;stroke:#036eb5;stroke-linecap:round;stroke-linejoin:round;stroke-miterlimit:10" transform="matrix(.707 .7072 -.7072 .707 43.0477 -13.6032)"/><path d="m39.074 46.285h5.461v5.461h-5.461z" style="fill-rule:evenodd;fill:#0088ce;stroke:#036eb5;stroke-linecap:round;stroke-linejoin:round;stroke-miterlimit:10" transform="matrix(.7072 .707 -.707 .7072 46.8955 -15.2047)"/><path d="m42.936 50.147h5.461v5.461h-5.461z" style="fill-rule:evenodd;fill:#2ca4de;stroke:#036eb5;stroke-linecap:round;stroke-linejoin:round;stroke-miterlimit:10" transform="matrix(.7071 .7071 -.7071 .7071 50.7649 -16.8035)"/><path d="m54.523 46.283h5.46v5.462h-5.46z" style="fill-rule:evenodd;fill:#91d9f8;stroke:#036eb5;stroke-linecap:round;stroke-linejoin:round;stroke-miterlimit:10" transform="matrix(.707 .7072 -.7072 .707 51.4367 -26.1288)"/><path d="m50.661 50.146h5.463v5.463h-5.463z" style="fill-rule:evenodd;fill:#2ca4de;stroke:#036eb5;stroke-linecap:round;stroke-linejoin:round;stroke-miterlimit:10" transform="matrix(.7072 .707 -.707 .7072 53.0187 -22.2664)"/><path d="m46.797 54.009h5.464v5.461h-5.464z" style="fill-rule:evenodd;fill:#2ca4de;stroke:#036eb5;stroke-linecap:round;stroke-linejoin:round;stroke-miterlimit:10" transform="matrix(.7071 .7071 -.7071 .7071 54.6274 -18.4036)"/><path d="m16.212 23.43h5.461v5.462h-5.461z" style="fill-rule:evenodd;fill:#91d9f8;stroke:#036eb5;stroke-linecap:round;stroke-linejoin:round;stroke-miterlimit:10" transform="matrix(-.7072 -.707 .707 -.7072 13.8423 58.0539)"/><path d="m12.35 19.567h5.462v5.462h-5.462z" style="fill-rule:evenodd;fill:#2ca4de;stroke:#036eb5;stroke-linecap:round;stroke-linejoin:round;stroke-miterlimit:10" transform="matrix(-.7069 -.7073 .7073 -.7069 9.9701 48.7279)"/><path d="m8.488 15.705h5.462v5.464h-5.462z" style="fill-rule:evenodd;fill:#2ca4de;stroke:#036eb5;stroke-linecap:round;stroke-linejoin:round;stroke-miterlimit:10" transform="matrix(-.7071 -.7071 .7071 -.7071 6.115 39.406)"/><path d="m20.074 19.568h5.463v5.461h-5.463z" style="fill-rule:evenodd;fill:#2ca4de;stroke:#036eb5;stroke-linecap:round;stroke-linejoin:round;stroke-miterlimit:10" transform="matrix(-.707 -.7072 .7072 -.707 23.1595 54.1914)"/><path d="m16.212 15.705h5.462v5.463h-5.462z" style="fill-rule:evenodd;fill:#2ca4de;stroke:#036eb5;stroke-linecap:round;stroke-linejoin:round;stroke-miterlimit:10" transform="matrix(-.7071 -.7071 .7071 -.7071 19.3009 44.8677)"/><path d="m12.35 11.843h5.462v5.461h-5.462z" style="fill-rule:evenodd;fill:#91d9f8;stroke:#036eb5;stroke-linecap:round;stroke-linejoin:round;stroke-miterlimit:10" transform="matrix(-.7069 -.7073 .7073 -.7069 15.4357 35.5424)"/><path d="m23.936 15.706h5.462v5.462h-5.462z" style="fill-rule:evenodd;fill:#2ca4de;stroke:#036eb5;stroke-linecap:round;stroke-linejoin:round;stroke-miterlimit:10" transform="matrix(-.7071 -.7071 .7071 -.7071 32.4873 50.3307)"/><path d="m20.073 11.843h5.464v5.461h-5.464z" style="fill-rule:evenodd;fill:#0088ce;stroke:#036eb5;stroke-linecap:round;stroke-linejoin:round;stroke-miterlimit:10" transform="matrix(-.707 -.7072 .7072 -.707 28.6219 41.0042)"/><path d="m16.212 7.98h5.461v5.462h-5.461z" style="fill-rule:evenodd;fill:#2ca4de;stroke:#036eb5;stroke-linecap:round;stroke-linejoin:round;stroke-miterlimit:10" transform="matrix(-.7072 -.707 .707 -.7072 24.7652 31.6791)"/><path d="m4.626 11.842h5.463v5.463h-5.463z" style="fill-rule:evenodd;fill:#91d9f8;stroke:#036eb5;stroke-linecap:round;stroke-linejoin:round;stroke-miterlimit:10" transform="matrix(-.707 -.7072 .7072 -.707 2.2519 30.0804)"/><path d="m8.487 7.979h5.464v5.463h-5.464z" style="fill-rule:evenodd;fill:#2ca4de;stroke:#036eb5;stroke-linecap:round;stroke-linejoin:round;stroke-miterlimit:10" transform="matrix(-.7071 -.7071 .7071 -.7071 11.5782 26.2167)"/><path d="m12.35 4.119h5.462v5.46h-5.462z" style="fill-rule:evenodd;fill:#2ca4de;stroke:#036eb5;stroke-linecap:round;stroke-linejoin:round;stroke-miterlimit:10" transform="matrix(-.7071 -.7071 .7071 -.7071 20.9014 22.3549)"/><path d="m28.486 36.383-.779-.779 3.003-2.997.782.777z" fill="#2ca4de" fill-rule="evenodd"/><path d="m32.634 36.643h1.103v4.251h-1.103z" fill="#036eb5" fill-rule="evenodd" transform="matrix(.708 .7062 -.7062 .708 37.0701 -12.1156)"/><path d="m24.837 28.856h1.103v4.247h-1.103z" fill="#036eb5" fill-rule="evenodd" transform="matrix(.7058 .7084 -.7084 .7058 29.4167 -8.871)"/><path d="m4.827 44.137s2.228 11.807 15.148 15.148" style="fill:none;stroke:#d8dd00;stroke-width:1.5064;stroke-linecap:round;stroke-linejoin:round;stroke-miterlimit:10"/><path d="m11.537 44.231s1.229 6.502 8.345 8.343" style="fill:none;stroke:#d8dd00;stroke-width:1.5064;stroke-linecap:round;stroke-linejoin:round;stroke-miterlimit:10"/></g></svg>